<?xml version="1.0" encoding="UTF-8" standalone="no"?>
<svg width="106px" height="48px" viewBox="0 0 106 48" version="1.1" xmlns="http://www.w3.org/2000/svg" xmlns:xlink="http://www.w3.org/1999/xlink" xmlns:sketch="http://www.bohemiancoding.com/sketch/ns">
    <title>console</title>
    <description>Created with Sketch (http://www.bohemiancoding.com/sketch)</description>
    <defs></defs>
    <g id="Page-1" stroke="none" stroke-width="1" fill="none" fill-rule="evenodd" sketch:type="MSPage">
        <g id="console" sketch:type="MSLayerGroup" transform="translate(0.000000, -1.000000)">
            <g id="Page-1" sketch:type="MSShapeGroup">
                <g id="Group" fill="#627886">
                    <path d="M12,3.07025746 C14.3912055,4.45349508 16,7.03887039 16,10 C16,14.4182782 12.4182782,18 8,18 C3.58172178,18 0,14.4182782 0,10 C0,7.03887039 1.60879446,4.45349508 4,3.07025746 L4,6.99951243 C3.37208948,7.83525646 3,8.8741751 3,10 C3,12.7614239 5.23857611,15 8,15 C10.7614239,15 13,12.7614239 13,10 C13,8.8741751 12.6279105,7.83525646 12,6.99951243 L12,3.07025746 L12,3.07025746 Z M7,1 L7,9 L9,9 L9,1 L7,1 L7,1 Z" id="Oval-3"></path>
                    <path d="M59.9071703,4.1142769 L59.9071703,10.6142769 L62.9071703,10.6142769 L62.9071703,5.6142769 L67.9071703,5.6142769 L67.9071703,2.6142769 L59.9071703,2.6142769 L59.9071703,4.1142769 L59.9071703,4.1142769 Z M60.0443695,13.7758886 C61.4276071,16.1670941 64.0129824,17.7758886 66.974112,17.7758886 C71.3923903,17.7758886 74.974112,14.1941668 74.974112,9.7758886 C74.974112,6.81475894 73.3653176,4.22938363 70.974112,2.84614601 L70.974112,2.84614601 L70.974112,6.77540099 C71.6020226,7.61114502 71.974112,8.6500637 71.974112,9.7758886 C71.974112,12.5373124 69.7355359,14.7758886 66.974112,14.7758886 C65.8482872,14.7758886 64.8093685,14.4037991 63.9736245,13.7758886 L60.0443695,13.7758886 L60.0443695,13.7758886 Z" id="Oval-3-copy" transform="translate(67.407170, 10.114277) rotate(135.000000) translate(-67.407170, -10.114277) "></path>
                    <path d="M43.134849,16.134849 C44.8862895,14.6673409 46,12.463731 46,10 C46,6.64262225 43.9318304,3.76829166 41,2.58151698 L41,5.99963373 C42.2144467,6.91184003 43,8.3641821 43,10 C43,11.635724 42.2145369,13.0879932 41.0002092,14.0002091 L39,12 L39,18 L45,18 L43.134849,16.134849 L43.134849,16.134849 Z M32.865151,3.86515097 C31.1137105,5.33265909 30,7.53626895 30,10 C30,13.3573777 32.0681696,16.2317083 35,17.418483 L35,14.0003663 C33.7855533,13.08816 33,11.6358179 33,10 C33,8.364276 33.7854631,6.91200678 34.9997909,5.99979083 L37,7.99999997 L37,1.99999997 L31,1.99999997 L32.865151,3.86515097 L32.865151,3.86515097 Z" id="Oval-3-copy"></path>
                    <path d="M93.7191321,12.5848737 L91.2476309,14.292047 C92.6675675,16.5212764 95.1610965,18 98,18 C98.8826419,18 99.7318982,17.8570597 100.525883,17.5930648 L100.525883,17.5930648 L99.2720889,14.8367387 C98.8659228,14.9432725 98.4395861,15 98,15 C96.1845494,15 94.595083,14.0324474 93.7191321,12.5848737 L93.7191321,12.5848737 Z M101.597741,6.52778079 L103.677613,4.3639799 C105.113124,5.81001888 106,7.80143891 106,10 C106,11.5996223 105.530516,13.0895908 104.721824,14.3396302 L104.721824,14.3396301 L102.139373,12.8054473 C102.682589,12.0055041 103,11.0398197 103,10 C103,8.65121282 102.465937,7.42716284 101.597741,6.52778079 L101.597741,6.52778079 Z M93.0016007,9.8722304 L90.0215143,9.40878968 C90.3240907,5.26658038 93.7805698,2 98,2 C98.0302842,2 98.060529,2.00016827 98.0907337,2.00050394 L98.0907337,2.00050394 L98.0339044,5.00011254 C98.0226118,5.00003755 98.0113103,5 98,5 C95.2812932,5 93.0693832,7.16985371 93.0016007,9.8722304 L93.0016007,9.8722304 Z M98,12 C99.1045696,12 100,11.1045696 100,10 C100,8.89543045 99.1045696,8 98,8 C96.8954304,8 96,8.89543045 96,10 C96,11.1045696 96.8954304,12 98,12 Z" id="Oval-1"></path>
                </g>
                <g id="Group-copy" transform="translate(0.000000, 30.000000)" fill="#53CDEC">
                    <path d="M12,3.07025746 C14.3912055,4.45349508 16,7.03887039 16,10 C16,14.4182782 12.4182782,18 8,18 C3.58172178,18 0,14.4182782 0,10 C0,7.03887039 1.60879446,4.45349508 4,3.07025746 L4,6.99951243 C3.37208948,7.83525646 3,8.8741751 3,10 C3,12.7614239 5.23857611,15 8,15 C10.7614239,15 13,12.7614239 13,10 C13,8.8741751 12.6279105,7.83525646 12,6.99951243 L12,3.07025746 L12,3.07025746 Z M7,1 L7,9 L9,9 L9,1 L7,1 L7,1 Z" id="Oval-3"></path>
                    <path d="M59.9071703,4.1142769 L59.9071703,10.6142769 L62.9071703,10.6142769 L62.9071703,5.6142769 L67.9071703,5.6142769 L67.9071703,2.6142769 L59.9071703,2.6142769 L59.9071703,4.1142769 L59.9071703,4.1142769 Z M60.0443695,13.7758886 C61.4276071,16.1670941 64.0129824,17.7758886 66.974112,17.7758886 C71.3923903,17.7758886 74.974112,14.1941668 74.974112,9.7758886 C74.974112,6.81475894 73.3653176,4.22938363 70.974112,2.84614601 L70.974112,2.84614601 L70.974112,6.77540099 C71.6020226,7.61114502 71.974112,8.6500637 71.974112,9.7758886 C71.974112,12.5373124 69.7355359,14.7758886 66.974112,14.7758886 C65.8482872,14.7758886 64.8093685,14.4037991 63.9736245,13.7758886 L60.0443695,13.7758886 L60.0443695,13.7758886 Z" id="Oval-3-copy" transform="translate(67.407170, 10.114277) rotate(135.000000) translate(-67.407170, -10.114277) "></path>
                    <path d="M43.134849,16.134849 C44.8862895,14.6673409 46,12.463731 46,10 C46,6.64262225 43.9318304,3.76829166 41,2.58151698 L41,5.99963373 C42.2144467,6.91184003 43,8.3641821 43,10 C43,11.635724 42.2145369,13.0879932 41.0002092,14.0002091 L39,12 L39,18 L45,18 L43.134849,16.134849 L43.134849,16.134849 Z M32.865151,3.86515097 C31.1137105,5.33265909 30,7.53626895 30,10 C30,13.3573777 32.0681696,16.2317083 35,17.418483 L35,14.0003663 C33.7855533,13.08816 33,11.6358179 33,10 C33,8.364276 33.7854631,6.91200678 34.9997909,5.99979083 L37,7.99999997 L37,1.99999997 L31,1.99999997 L32.865151,3.86515097 L32.865151,3.86515097 Z" id="Oval-3-copy"></path>
                    <path d="M93.7191321,12.5848737 L91.2476309,14.292047 C92.6675675,16.5212764 95.1610965,18 98,18 C98.8826419,18 99.7318982,17.8570597 100.525883,17.5930648 L100.525883,17.5930648 L99.2720889,14.8367387 C98.8659228,14.9432725 98.4395861,15 98,15 C96.1845494,15 94.595083,14.0324474 93.7191321,12.5848737 L93.7191321,12.5848737 Z M101.597741,6.52778079 L103.677613,4.3639799 C105.113124,5.81001888 106,7.80143891 106,10 C106,11.5996223 105.530516,13.0895908 104.721824,14.3396302 L104.721824,14.3396301 L102.139373,12.8054473 C102.682589,12.0055041 103,11.0398197 103,10 C103,8.65121282 102.465937,7.42716284 101.597741,6.52778079 L101.597741,6.52778079 Z M93.0016007,9.8722304 L90.0215143,9.40878968 C90.3240907,5.26658038 93.7805698,2 98,2 C98.0302842,2 98.060529,2.00016827 98.0907337,2.00050394 L98.0907337,2.00050394 L98.0339044,5.00011254 C98.0226118,5.00003755 98.0113103,5 98,5 C95.2812932,5 93.0693832,7.16985371 93.0016007,9.8722304 L93.0016007,9.8722304 Z M98,12 C99.1045696,12 100,11.1045696 100,10 C100,8.89543045 99.1045696,8 98,8 C96.8954304,8 96,8.89543045 96,10 C96,11.1045696 96.8954304,12 98,12 Z" id="Oval-1-copy"></path>
                </g>
            </g>
        </g>
    </g>
</svg>