<?xml version="1.0" encoding="UTF-8" standalone="no"?>
<svg width="107px" height="48px" viewBox="0 0 107 48" version="1.1" xmlns="http://www.w3.org/2000/svg" xmlns:xlink="http://www.w3.org/1999/xlink" xmlns:sketch="http://www.bohemiancoding.com/sketch/ns">
    <title>console</title>
    <description>Created with Sketch (http://www.bohemiancoding.com/sketch)</description>
    <defs></defs>
    <g id="Page-1" stroke="none" stroke-width="1" fill="none" fill-rule="evenodd" sketch:type="MSPage">
        <g id="Group" sketch:type="MSLayerGroup" transform="translate(0.000000, -3.000000)" fill="#627886">
            <path d="M12,5.07025746 C14.3912055,6.45349508 16,9.03887039 16,12 C16,16.4182782 12.4182782,20 8,20 C3.58172178,20 0,16.4182782 0,12 C0,9.03887039 1.60879446,6.45349508 4,5.07025746 L4,8.99951243 C3.37208948,9.83525646 3,10.8741751 3,12 C3,14.7614239 5.23857611,17 8,17 C10.7614239,17 13,14.7614239 13,12 C13,10.8741751 12.6279105,9.83525646 12,8.99951243 L12,5.07025746 L12,5.07025746 Z M7,3 L7,11 L9,11 L9,3 L7,3 Z M7,3" id="Oval-3" sketch:type="MSShapeGroup"></path>
            <path d="M61,6.5 L61,13 L64,13 L64,8 L69,8 L69,5 L61,5 L61,6.5 Z M61.1371992,16.1616117 C62.5204368,18.5528172 65.1058121,20.1616117 68.0669417,20.1616117 C72.48522,20.1616117 76.0669417,16.5798899 76.0669417,12.1616117 C76.0669417,9.20048204 74.4581473,6.61510673 72.0669417,5.23186911 L72.0669417,5.23186911 L72.0669417,9.16112409 C72.6948523,9.99686812 73.0669417,11.0357868 73.0669417,12.1616117 C73.0669417,14.9230355 70.8283656,17.1616117 68.0669417,17.1616117 C66.9411169,17.1616117 65.9021982,16.7895222 65.0664542,16.1616117 L61.1371992,16.1616117 L61.1371992,16.1616117 Z M61.1371992,16.1616117" id="Oval-3-copy" sketch:type="MSShapeGroup" transform="translate(68.033471, 12.080806) rotate(-225.000000) translate(-68.033471, -12.080806) "></path>
            <path d="M43.134849,18.134849 C44.8862895,16.6673409 46,14.463731 46,12 C46,8.64262225 43.9318304,5.76829166 41,4.58151698 L41,7.99963373 C42.2144467,8.91184003 43,10.3641821 43,12 C43,13.635724 42.2145369,15.0879932 41.0002092,16.0002091 L39,14 L39,20 L45,20 L43.134849,18.134849 Z M32.865151,5.86515097 C31.1137105,7.33265909 30,9.53626895 30,12 C30,15.3573777 32.0681696,18.2317083 35,19.418483 L35,16.0003663 C33.7855533,15.08816 33,13.6358179 33,12 C33,10.364276 33.7854631,8.91200678 34.9997909,7.99979083 L37,9.99999997 L37,3.99999997 L31,3.99999997 L32.865151,5.86515097 L32.865151,5.86515097 Z M32.865151,5.86515097" id="Oval-3-copy" sketch:type="MSShapeGroup"></path>
            <path d="M107,10.7879272 L105.69015,10.3221117 C105.190738,10.1445146 104.788927,9.76315049 104.585947,9.27352427 C104.382136,8.7821068 104.396379,8.22799515 104.624524,7.74806796 L105.221015,6.49313592 L103.506908,4.77902913 L102.25215,5.37547573 C101.772485,5.60349029 101.217587,5.6177767 100.727044,5.41431553 C100.236456,5.21094175 99.8555728,4.80969903 99.6778883,4.30993689 L99.2119854,3 L96.7879272,3 L96.3221117,4.30984951 C96.1445146,4.80926214 95.7631505,5.21102913 95.2735243,5.4140534 C94.7820631,5.61786408 94.2279078,5.60357767 93.7479369,5.37543204 L92.4930485,4.77894175 L90.7789417,6.49304854 L91.375432,7.74784951 C91.6034466,8.22751456 91.6176893,8.78245631 91.4142718,9.27304369 C91.2108981,9.76354369 90.8096117,10.1443835 90.3099369,10.322068 L89,10.7879272 L89,13.2120291 L90.3098058,13.677801 C90.8092184,13.8553981 91.2109854,14.2367621 91.4140097,14.7263447 C91.6178204,15.2178495 91.6035777,15.7720485 91.375432,16.2519757 L90.7788981,17.5068641 L92.4930049,19.2209709 L93.7478058,18.6245243 C94.2274709,18.3965097 94.7824126,18.3822233 95.2729563,18.5856845 C95.7635,18.7890583 96.1442961,19.190301 96.3220243,19.6900194 L96.7879272,21 L99.2119854,21 L99.6748738,19.6984951 C99.8541311,19.1944078 100.238816,18.7887087 100.732854,18.5833252 C101.219597,18.3808689 101.768641,18.3947184 102.244155,18.620767 L103.506864,19.2209709 L105.220971,17.5068641 L104.624175,16.2513641 C104.396379,15.7721359 104.38218,15.2177184 104.585466,14.7276117 C104.789058,14.2365874 105.190738,13.8554417 105.690937,13.6775388 L107,13.2120291 L107,10.7879272 Z M98.0000662,17 C95.2386064,17 93,14.7614449 93,12.0000331 C93,9.23862125 95.2386064,7 98.0000662,7 C100.76146,7 103,9.23862125 103,12.0000331 C103,14.7614449 100.76146,17 98.0000662,17 L98.0000662,17 Z M98.0000662,17" id="gear-icon" sketch:type="MSShapeGroup"></path>
        </g>
        <g id="Group-copy" sketch:type="MSLayerGroup" transform="translate(0.000000, 27.000000)" fill="#53CDEC">
            <path d="M12,5.07025746 C14.3912055,6.45349508 16,9.03887039 16,12 C16,16.4182782 12.4182782,20 8,20 C3.58172178,20 0,16.4182782 0,12 C0,9.03887039 1.60879446,6.45349508 4,5.07025746 L4,8.99951243 C3.37208948,9.83525646 3,10.8741751 3,12 C3,14.7614239 5.23857611,17 8,17 C10.7614239,17 13,14.7614239 13,12 C13,10.8741751 12.6279105,9.83525646 12,8.99951243 L12,5.07025746 L12,5.07025746 Z M7,3 L7,11 L9,11 L9,3 L7,3 Z M7,3" id="Oval-3" sketch:type="MSShapeGroup"></path>
            <path d="M61,6.5 L61,13 L64,13 L64,8 L69,8 L69,5 L61,5 L61,6.5 Z M61.1371992,16.1616117 C62.5204368,18.5528172 65.1058121,20.1616117 68.0669417,20.1616117 C72.48522,20.1616117 76.0669417,16.5798899 76.0669417,12.1616117 C76.0669417,9.20048204 74.4581473,6.61510673 72.0669417,5.23186911 L72.0669417,5.23186911 L72.0669417,9.16112409 C72.6948523,9.99686812 73.0669417,11.0357868 73.0669417,12.1616117 C73.0669417,14.9230355 70.8283656,17.1616117 68.0669417,17.1616117 C66.9411169,17.1616117 65.9021982,16.7895222 65.0664542,16.1616117 L61.1371992,16.1616117 L61.1371992,16.1616117 Z M61.1371992,16.1616117" id="Oval-3-copy" sketch:type="MSShapeGroup" transform="translate(68.033471, 12.080806) rotate(-225.000000) translate(-68.033471, -12.080806) "></path>
            <path d="M43.134849,18.134849 C44.8862895,16.6673409 46,14.463731 46,12 C46,8.64262225 43.9318304,5.76829166 41,4.58151698 L41,7.99963373 C42.2144467,8.91184003 43,10.3641821 43,12 C43,13.635724 42.2145369,15.0879932 41.0002092,16.0002091 L39,14 L39,20 L45,20 L43.134849,18.134849 Z M32.865151,5.86515097 C31.1137105,7.33265909 30,9.53626895 30,12 C30,15.3573777 32.0681696,18.2317083 35,19.418483 L35,16.0003663 C33.7855533,15.08816 33,13.6358179 33,12 C33,10.364276 33.7854631,8.91200678 34.9997909,7.99979083 L37,9.99999997 L37,3.99999997 L31,3.99999997 L32.865151,5.86515097 L32.865151,5.86515097 Z M32.865151,5.86515097" id="Oval-3-copy" sketch:type="MSShapeGroup"></path>
            <path d="M107,10.7879272 L105.69015,10.3221117 C105.190738,10.1445146 104.788927,9.76315049 104.585947,9.27352427 C104.382136,8.7821068 104.396379,8.22799515 104.624524,7.74806796 L105.221015,6.49313592 L103.506908,4.77902913 L102.25215,5.37547573 C101.772485,5.60349029 101.217587,5.6177767 100.727044,5.41431553 C100.236456,5.21094175 99.8555728,4.80969903 99.6778883,4.30993689 L99.2119854,3 L96.7879272,3 L96.3221117,4.30984951 C96.1445146,4.80926214 95.7631505,5.21102913 95.2735243,5.4140534 C94.7820631,5.61786408 94.2279078,5.60357767 93.7479369,5.37543204 L92.4930485,4.77894175 L90.7789417,6.49304854 L91.375432,7.74784951 C91.6034466,8.22751456 91.6176893,8.78245631 91.4142718,9.27304369 C91.2108981,9.76354369 90.8096117,10.1443835 90.3099369,10.322068 L89,10.7879272 L89,13.2120291 L90.3098058,13.677801 C90.8092184,13.8553981 91.2109854,14.2367621 91.4140097,14.7263447 C91.6178204,15.2178495 91.6035777,15.7720485 91.375432,16.2519757 L90.7788981,17.5068641 L92.4930049,19.2209709 L93.7478058,18.6245243 C94.2274709,18.3965097 94.7824126,18.3822233 95.2729563,18.5856845 C95.7635,18.7890583 96.1442961,19.190301 96.3220243,19.6900194 L96.7879272,21 L99.2119854,21 L99.6748738,19.6984951 C99.8541311,19.1944078 100.238816,18.7887087 100.732854,18.5833252 C101.219597,18.3808689 101.768641,18.3947184 102.244155,18.620767 L103.506864,19.2209709 L105.220971,17.5068641 L104.624175,16.2513641 C104.396379,15.7721359 104.38218,15.2177184 104.585466,14.7276117 C104.789058,14.2365874 105.190738,13.8554417 105.690937,13.6775388 L107,13.2120291 L107,10.7879272 Z M98.0000662,17 C95.2386064,17 93,14.7614449 93,12.0000331 C93,9.23862125 95.2386064,7 98.0000662,7 C100.76146,7 103,9.23862125 103,12.0000331 C103,14.7614449 100.76146,17 98.0000662,17 L98.0000662,17 Z M98.0000662,17" id="gear-icon" sketch:type="MSShapeGroup"></path>
        </g>
    </g>
</svg>