<?xml version="1.0" encoding="UTF-8" standalone="no"?>
<svg width="10px" height="10px" viewBox="0 0 10 10" version="1.1" xmlns="http://www.w3.org/2000/svg" xmlns:xlink="http://www.w3.org/1999/xlink" xmlns:sketch="http://www.bohemiancoding.com/sketch/ns">
    <title>gear</title>
    <description>Created with Sketch (http://www.bohemiancoding.com/sketch)</description>
    <defs></defs>
    <g id="Page-1" stroke="none" stroke-width="1" fill="none" fill-rule="evenodd" sketch:type="MSPage">
        <path d="M10,4.32662622 L9.27230556,4.06783983 C8.99485444,3.96917478 8.77162611,3.75730583 8.65885944,3.48529126 C8.54563111,3.21228156 8.55354389,2.90444175 8.68029111,2.63781553 L9.011675,1.94063107 L8.05939333,0.988349517 L7.36230556,1.31970874 C7.095825,1.44638349 6.78754833,1.45432039 6.51502444,1.34128641 C6.24247556,1.22830097 6.03087378,1.00538835 5.93216017,0.727742717 L5.67332522,0 L4.32662622,0 L4.06783983,0.727694172 C3.96917478,1.00514563 3.75730583,1.22834952 3.48529128,1.34114078 C3.21225728,1.45436893 2.90439322,1.44643204 2.63774272,1.31968447 L1.9405825,0.988300972 L0.988300944,1.94058252 L1.31968444,2.63769417 C1.44635922,2.90417476 1.45427183,3.21247573 1.34126211,3.48502427 C1.22827672,3.75752427 1.00533983,3.96910194 0.727742722,4.06781556 L0,4.32662622 L0,5.6733495 L0.727669889,5.93211167 C1.00512133,6.03077672 1.22832522,6.24264561 1.3411165,6.51463594 C1.45434467,6.78769417 1.44643206,7.0955825 1.31968444,7.36220872 L0.988276722,8.05936894 L1.94055828,9.0116505 L2.63766989,8.68029128 C2.9041505,8.5536165 3.21245144,8.54567961 3.48497572,8.65871361 C3.7575,8.77169906 3.96905339,8.99461167 4.06779128,9.272233 L4.32662622,10 L5.67332522,10 L5.93048544,9.27694172 C6.03007283,8.99689322 6.24378667,8.77150483 6.51825222,8.65740289 C6.788665,8.54492717 7.09368944,8.55262133 7.35786389,8.67820389 L8.05936889,9.0116505 L9.01165056,8.05936894 L8.68009722,7.36186894 C8.55354389,7.09563106 8.54565556,6.78762133 8.65859222,6.51533983 C8.77169889,6.24254856 8.99485444,6.03080094 9.27274278,5.931966 L10,5.6733495 L10,4.32662622 L10,4.32662622 Z M3,5.00001324 C3,3.8954485 3.89544256,3 5.00002648,3 C6.104584,3 7,3.8954485 7,5.00001324 C7,6.10457796 6.104584,7 5.00002648,7 C3.89544256,7 3,6.10457796 3,5.00001324 Z" id="gear-icon-copy" fill="#FFFFFF" sketch:type="MSShapeGroup"></path>
    </g>
</svg>