<?xml version="1.0" encoding="UTF-8" standalone="no"?>
<svg width="50px" height="220px" viewBox="0 0 50 220" version="1.1" xmlns="http://www.w3.org/2000/svg" xmlns:xlink="http://www.w3.org/1999/xlink" xmlns:sketch="http://www.bohemiancoding.com/sketch/ns">
    <title>Rectangle 11</title>
    <description>Created with Sketch (http://www.bohemiancoding.com/sketch)</description>
    <defs></defs>
    <g id="Page-1" stroke="none" stroke-width="1" fill="none" fill-rule="evenodd" sketch:type="MSPage">
        <g id="layouts" sketch:type="MSLayerGroup" transform="translate(15.000000, 15.000000)">
            <g id="Page-1" sketch:type="MSShapeGroup">
                <g id="User">
                    <g id="Group">
                        <path d="M0,0 L0,20 L20,20 L20,0 L0,0 Z M3,2 L3,18 L13,18 L13,2 L3,2 Z M3,2" id="Rectangle-256-copy" fill-opacity="0.801326976" fill="#FFFFFF"></path>
                        <path d="M33,202 L33,195 L26,202 L33,202 L33,202 L33,202 L33,202 Z M33,202" id="Path-81" fill="#000000"></path>
                    </g>
                    <g id="Group-copy" transform="translate(1.000000, 50.000000)" fill-opacity="0.801326976" fill="#FFFFFF">
                        <path d="M0,0 L0,20 L20,20 L20,0 L0,0 Z M2,2 L2,18 L12,18 L12,2 L2,2 Z M12,9 L12,11 L20,11 L20,9 L12,9 Z M12,9" id="Rectangle-256-copy"></path>
                    </g>
                    <g id="Group-copy-2" transform="translate(1.000000, 100.000000)" fill-opacity="0.801326976" fill="#FFFFFF">
                        <path d="M0,0 L0,20 L20,20 L20,0 L0,0 Z M2,2 L2,12 L18,12 L18,2 L2,2 Z M2,2" id="Rectangle-256-copy"></path>
                    </g>
                    <g id="Group-copy-3" transform="translate(1.000000, 150.000000)" fill-opacity="0.801326976" fill="#FFFFFF">
                        <path d="M0,0 L0,20 L20,20 L20,0 L0,0 Z M2,3 L2,13 L18,13 L18,3 L2,3 Z M9,13 L9,20 L11,20 L11,13 L9,13 Z M9,13" id="Rectangle-256-copy"></path>
                    </g>
                </g>
            </g>
        </g>
    </g>
</svg>