<?xml version="1.0" encoding="UTF-8" standalone="no"?>
<svg width="20px" height="20px" viewBox="0 0 20 20" version="1.1" xmlns="http://www.w3.org/2000/svg" xmlns:xlink="http://www.w3.org/1999/xlink" xmlns:sketch="http://www.bohemiancoding.com/sketch/ns">
    <title>Slice 1</title>
    <description>Created with Sketch (http://www.bohemiancoding.com/sketch)</description>
    <defs></defs>
    <g id="Page-1" stroke="none" stroke-width="1" fill="none" fill-rule="evenodd" sketch:type="MSPage">
        <g id="omnisearch" sketch:type="MSLayerGroup" fill="#627886">
            <g id="Page-1" sketch:type="MSShapeGroup">
                <path d="M0,7.14202603 C0,11.1437328 3.17117963,14.4018945 7.08494958,14.4193424 C10.9978592,14.4367864 14.1698992,11.2404077 14.1698992,7.27808536 C14.1698992,3.316634 10.9987195,0.0584811925 7.08494958,0.000769037195 C3.17203997,-0.0569304316 0,3.13943936 0,7.14202603 C0,7.14202603 0,3.13943936 0,7.14202603 L0,7.14202603 L0,7.14202603 Z M7.08494958,2.40386459 C9.69412955,2.43786555 11.8082493,4.60996841 11.8082493,7.25540881 C11.8082493,9.90143086 9.69355599,12.032349 7.08494958,12.0162468 C4.47576962,12.0001411 2.36164986,9.82803429 2.36164986,7.16470258 C2.36164986,4.50078528 4.47634318,2.3698711 7.08494958,2.40386459 C7.08494958,2.40386459 4.47634318,2.3698711 7.08494958,2.40386459 L7.08494958,2.40386459 L7.08494958,2.40386459 Z M15.9175703,12.8487808 L18.5960852,15.5669538 C19.5134766,16.4955332 19.5150603,18.0051962 18.5927786,18.9341901 C17.6723736,19.862525 16.1766634,19.8650533 15.2562079,18.9333747 L12.577693,16.2152016 C11.6603015,15.2818321 11.6587179,13.7636294 12.5809995,12.8334004 C13.5014045,11.9062956 14.9971148,11.9122919 15.9175703,12.8487808 C15.9175703,12.8487808 14.9971148,11.9122919 15.9175703,12.8487808 L15.9175703,12.8487808 L15.9175703,12.8487808 Z M15.9175703,12.8487808" id="Rectangle-63"></path>
            </g>
        </g>
    </g>
</svg>