<?xml version="1.0" encoding="UTF-8" standalone="no"?>
<svg width="50px" height="50px" viewBox="0 0 50 50" version="1.1" xmlns="http://www.w3.org/2000/svg" xmlns:xlink="http://www.w3.org/1999/xlink" xmlns:sketch="http://www.bohemiancoding.com/sketch/ns">
    <title>scala</title>
    <description>Created with Sketch (http://www.bohemiancoding.com/sketch)</description>
    <defs></defs>
    <g id="Page-1" stroke="none" stroke-width="1" fill="none" fill-rule="evenodd" sketch:type="MSPage">
        <g id="scala" sketch:type="MSLayerGroup" transform="translate(16.000000, 10.000000)">
            <path id="Fill-1" fill="#FFFFFF" sketch:type="MSShapeGroup" d="M0,3.87096774 L0,3.9383104 L0.00612222222,3.9383104 C0.00232222222,3.91586285 0,3.89341529 0,3.87096774"></path>
            <path d="M14.4975511,7.25806452 C14.902655,7.25806452 15.3867054,7.50992322 16.3512082,8.011588 C16.7302788,8.20864126 17.2020534,8.45413679 17.7656854,8.73350085 C18.2613767,8.9845385 18.5128205,9.25014989 18.5128205,9.5229455 L18.5128205,9.5882194 C18.4986398,10.2029845 16.5912228,14.4453772 15.0590665,14.8745838 C14.7572493,14.9589472 14.4393465,15 14.0867326,15 C12.7738489,15 11.2821184,14.421156 9.70276359,13.8084435 C8.45062433,13.3223788 7.15551951,12.819893 5.87438378,12.5817869 C2.66360748,11.9101637 0.994511774,11.3760673 0.487179487,11.1162033 C1.10986267,9.03954921 5.05401668,8.58632669 8.8728721,8.14788317 C10.7159466,7.93605091 12.621882,7.71723968 14.1508634,7.30876468 C14.2801834,7.27428036 14.390243,7.25806452 14.4975511,7.25806452 M14.5429265,6.77419355 C14.3943645,6.77419355 14.2451648,6.79653301 14.0819379,6.84079438 C9.22189783,8.15569115 0.641643456,7.4821667 0,11.2855129 C0.26396859,11.6429444 2.48899851,12.314381 5.79413179,13.0148381 C8.66930658,13.5566223 11.6435227,15.483871 14.1303959,15.483871 C14.5070081,15.483871 14.8725684,15.4398184 15.2247391,15.3398127 C17.0359632,14.826005 19,10.244118 19,9.56245114 L19,9.49543274 C19,9.02108447 18.6382653,8.63859941 18.0212759,8.32229763 C15.9365191,7.27547445 15.2474803,6.77419355 14.5429265,6.77419355" id="Fill-2" fill="#FFFFFF" sketch:type="MSShapeGroup"></path>
            <path d="M12.877167,15.9677419 C13.7075257,15.9677419 15.5788582,16.6550674 17.7633533,17.7632582 C18.2605919,18.0110763 18.5128205,18.2732813 18.5128205,18.5425783 L18.5128205,18.6074204 C18.5109097,18.8051885 18.1419086,19.9115556 17.4349041,21.1581436 C16.6659041,22.5137473 15.8555029,23.3929646 15.2113433,23.5704697 C14.8714291,23.6640854 14.5145299,23.7096774 14.1200511,23.7096774 C12.8468062,23.7096774 11.4003133,23.2182964 9.86910728,22.6981418 C8.58397277,22.2616739 7.25510164,21.8104139 5.82856624,21.5607721 C2.72220526,20.921065 1.05554312,20.4080024 0.487179487,20.1425554 C1.5436522,18.2331603 5.19757008,17.5243559 8.73662628,16.8376383 C10.0572172,16.5815123 11.4228186,16.3164705 12.6697366,15.988613 C12.7062546,15.9790893 12.7718595,15.9677419 12.877167,15.9677419 M12.9333982,15.483871 C12.8122532,15.483871 12.704923,15.4954269 12.6128953,15.5199833 C7.75285524,16.8198212 1.24014229,17.1050055 0,20.2880504 C0.26396859,20.6415386 2.48899851,21.3051802 5.79413179,21.997299 C8.94623981,22.5565244 11.7565914,24.1935484 14.1775787,24.1935484 C14.5926597,24.1935484 14.9960513,24.1454674 15.387966,24.0354795 C17.1991901,23.5276368 19,19.2587455 19,18.5849924 L19,18.518752 C19,18.0499107 18.6382653,17.6718661 18.0212759,17.3592364 C16.2846516,16.4630313 14.0438941,15.483871 12.9333982,15.483871" id="Fill-3" fill="#FFFFFF" sketch:type="MSShapeGroup"></path>
            <path id="Fill-4" fill="#FFFFFF" sketch:type="MSShapeGroup" d="M0,13.0645161 L0,13.1318588 L0.00612222222,13.1318588 C0.00232222222,13.1094112 0,13.0869637 0,13.0645161"></path>
            <path id="Fill-5" fill="#9BC73D" sketch:type="MSShapeGroup" d="M0,11.1963749 C0.00844444444,11.1963749 0.0177333333,11.1961651 0.0263888889,11.1961651 C0.00886666667,11.1724588 0,11.1500113 0,11.1290323 L0,11.1963749"></path>
            <path id="Fill-6" fill="#9BC73D" sketch:type="MSShapeGroup" d="M0,20.3899233 C0.00844444444,20.3899233 0.0177333333,20.3897135 0.0263888889,20.3897135 C0.00886666667,20.3660072 0,20.3435597 0,20.3225806 L0,20.3899233"></path>
            <path d="M15.3860057,1.81516189 C10.9173276,3.09626675 3.8264449,3.82477531 0.00615491164,3.82561801 L0,3.82561801 L0,11.0616168 C0,11.0826841 0.00891400996,11.1052262 0.0265297916,11.1290323 C2.63451442,11.1235548 10.6853511,10.2852853 15.538605,8.95846437 C16.4741516,8.7024962 17.3744666,8.4286208 18.0226425,8.1389449 C18.6175465,7.87307509 19,7.59393285 19,7.30341425 L19,0 C19,0.687848603 17.1947007,1.29669469 15.3860057,1.81516189" id="Fill-7" fill="#FFFFFF" sketch:type="MSShapeGroup"></path>
            <path d="M15.3860057,11.0087103 C12.7118027,11.7753507 9.10099193,12.3439582 5.81257121,12.6772435 C3.6044436,12.9009786 1.54169925,13.0189557 0.00615491164,13.0191664 L0,13.0191664 L0,20.2551652 C0,20.2762325 0.00891400996,20.2987746 0.0265297916,20.3225806 C2.63451442,20.3171031 10.6853511,19.4788337 15.538605,18.1520128 C16.4741516,17.8960446 17.3744666,17.6221692 18.0226425,17.3324933 C18.6175465,17.0666235 19,16.7874812 19,16.4971733 L19,14.6904384 L19,9.19354839 C19,9.88139699 17.1947007,10.4902431 15.3860057,11.0087103" id="Fill-8" fill="#FFFFFF" sketch:type="MSShapeGroup"></path>
            <path d="M15.3860057,20.6863059 C12.7118027,21.4527212 9.10099193,22.0213179 5.81257121,22.3545969 C3.60147226,22.5787491 1.53618105,22.6965133 0,22.6965133 L0,30 C2.58039365,30 10.669221,29.1604825 15.538605,27.8292625 C17.3330801,27.3386135 19,26.7811823 19,26.1744544 L19,24.3677537 L19,18.8709677 C19,19.5588033 17.1947007,20.1676379 15.3860057,20.6863059" id="Fill-9" fill="#FFFFFF" sketch:type="MSShapeGroup"></path>
        </g>
    </g>
</svg>