<?xml version="1.0" encoding="UTF-8" standalone="no"?>
<svg width="20px" height="20px" viewBox="0 0 20 20" version="1.1" xmlns="http://www.w3.org/2000/svg" xmlns:xlink="http://www.w3.org/1999/xlink" xmlns:sketch="http://www.bohemiancoding.com/sketch/ns">
    <title>Slice 1</title>
    <description>Created with Sketch (http://www.bohemiancoding.com/sketch)</description>
    <defs></defs>
    <g id="Page-1" stroke="none" stroke-width="1" fill="none" fill-rule="evenodd" sketch:type="MSPage">
        <path d="M0,7.14202603 C0,11.1437328 3.21633083,14.4018945 7.18582496,14.4193424 C11.1544465,14.4367864 14.3716499,11.2404077 14.3716499,7.27808536 C14.3716499,3.316634 11.1553191,0.0584811925 7.18582496,0.000769037195 C3.21720342,-0.0569304316 0,3.13943936 0,7.14202603 Z M7.18582496,2.40386459 C9.83215438,2.43786555 11.9763749,4.60996841 11.9763749,7.25540881 C11.9763749,9.90143086 9.83157265,12.032349 7.18582496,12.0162468 C4.53949554,12.0001411 2.39527499,9.82803429 2.39527499,7.16470258 C2.39527499,4.50078528 4.54007727,2.3698711 7.18582496,2.40386459 Z M16.1442043,12.8487808 L18.8608559,15.5669538 C19.7913091,16.4955332 19.7929153,18.0051962 18.8575022,18.9341901 C17.9239926,19.862525 16.4069864,19.8650533 15.4734255,18.9333747 L12.756774,16.2152016 C11.8263207,15.2818321 11.8247145,13.7636294 12.7601276,12.8334004 C13.6936373,11.9062956 15.2106434,11.9122919 16.1442043,12.8487808 Z" id="Rectangle-63" fill="#C8CDD0" sketch:type="MSShapeGroup"></path>
    </g>
</svg>