<?xml version="1.0" encoding="UTF-8" standalone="no"?>
<svg width="120px" height="30px" viewBox="0 0 120 30" version="1.1" xmlns="http://www.w3.org/2000/svg" xmlns:xlink="http://www.w3.org/1999/xlink" xmlns:sketch="http://www.bohemiancoding.com/sketch/ns">
    <title>status</title>
    <description>Created with Sketch (http://www.bohemiancoding.com/sketch)</description>
    <defs></defs>
    <g id="Page-1" stroke="none" stroke-width="1" fill="none" fill-rule="evenodd" sketch:type="MSPage">
        <path d="M0,0 L0,30 L120,30 L120,0 L0,0 Z M19,8.07025746 C21.3912055,9.45349508 23,12.0388704 23,15 C23,19.4182782 19.4182782,23 15,23 C10.5817218,23 7,19.4182782 7,15 C7,12.0388704 8.60879446,9.45349508 11,8.07025746 L11,11.9995124 C10.3720895,12.8352565 10,13.8741751 10,15 C10,17.7614239 12.2385761,20 15,20 C17.7614239,20 20,17.7614239 20,15 C20,13.8741751 19.6279105,12.8352565 19,11.9995124 L19,8.07025746 Z M14,6 L14,14 L16,14 L16,6 L14,6 Z M84.6099657,14.0536171 L80.0137716,9.45742303 L77.8924512,11.5787434 L81.4279851,15.1142773 L77.8924512,18.6498112 L80.0137716,20.7711315 L85.6706258,15.1142773 L84.6099657,14.0536171 Z M69.2958107,9.39048123 C66.1716162,12.5146758 66.1716163,17.5799953 69.2958107,20.7041897 C71.3896456,22.7980246 74.3553714,23.4885716 77.0243058,22.7758306 L74.245903,19.9974277 C73.2109429,19.8504673 72.2132095,19.3789478 71.4171311,18.5828694 C69.4645096,16.6302479 69.4645095,13.4644231 71.4171311,11.5118016 C72.2132094,10.7157232 73.2109429,10.2442038 74.2459029,10.0972433 L77.0243058,7.31884045 C74.3553715,6.60609951 71.3896456,7.29664641 69.2958107,9.39048123 Z M50.134849,21.134849 C51.8862895,19.6673409 53,17.463731 53,15 C53,11.6426222 50.9318304,8.76829166 48,7.58151698 L48,10.9996337 C49.2144467,11.91184 50,13.3641821 50,15 C50,16.635724 49.2145369,18.0879932 48.0002092,19.0002091 L46,17 L46,23 L52,23 L50.134849,21.134849 Z M39.865151,8.86515097 C38.1137105,10.3326591 37,12.536269 37,15 C37,18.3573777 39.0681696,21.2317083 42,22.418483 L42,19.0003663 C40.7855533,18.08816 40,16.6358179 40,15 C40,13.364276 40.7854631,11.9120068 41.9997909,10.9997908 L44,13 L44,6.99999997 L38,6.99999997 L39.865151,8.86515097 Z M100.719132,17.5848737 L98.2476309,19.292047 C99.6675675,21.5212764 102.161097,23 105,23 C105.882642,23 106.731898,22.8570597 107.525883,22.5930648 L106.272089,19.8367387 C105.865923,19.9432725 105.439586,20 105,20 C103.184549,20 101.595083,19.0324474 100.719132,17.5848737 Z M108.597741,11.5277808 L110.677613,9.3639799 C112.113124,10.8100189 113,12.8014389 113,15 C113,16.5996223 112.530516,18.0895908 111.721824,19.3396302 L111.721824,19.3396301 L109.139373,17.8054473 C109.682589,17.0055041 110,16.0398197 110,15 C110,13.6512128 109.465937,12.4271628 108.597741,11.5277808 Z M100.001601,14.8722304 L97.0215143,14.4087897 C97.3240907,10.2665804 100.78057,7 105,7 C105.030284,7 105.060529,7.00016827 105.090734,7.00050394 L105.033904,10.0001125 C105.022612,10.0000376 105.01131,10 105,10 C102.281293,10 100.069383,12.1698537 100.001601,14.8722304 Z M105,17 C106.10457,17 107,16.1045696 107,15 C107,13.8954304 106.10457,13 105,13 C103.89543,13 103,13.8954304 103,15 C103,16.1045696 103.89543,17 105,17 Z" id="Rectangle-1" fill="#364550" sketch:type="MSShapeGroup"></path>
    </g>
</svg>