<?xml version="1.0" encoding="UTF-8" standalone="no"?>
<svg width="50px" height="50px" viewBox="0 0 50 50" version="1.1" xmlns="http://www.w3.org/2000/svg" xmlns:xlink="http://www.w3.org/1999/xlink" xmlns:sketch="http://www.bohemiancoding.com/sketch/ns">
    <title>Rectangle 1</title>
    <description>Created with Sketch (http://www.bohemiancoding.com/sketch)</description>
    <defs></defs>
    <g id="Page-1" stroke="none" stroke-width="1" fill="none" fill-rule="evenodd" sketch:type="MSPage">
        <path d="M25,11 C16.7157039,11 10,17.7157039 10,26 C10,34.2842961 16.7157039,41 25,41 C33.2802913,41 40,34.2858252 40,26 C40,17.7157039 33.2842961,11 25,11 L25,11 L25,11 L25,11 Z M35.6770146,31.6783738 L33.5679854,29.5693447 C32.7488835,28.7502427 32.3250243,27.6165777 32.404466,26.4609951 C32.5471117,24.3875 31.8263107,22.2660922 30.2412621,20.6810437 C28.1570631,18.5968447 25.1453398,18.0066019 22.5350485,18.9092233 L27.2740291,23.6482767 C27.3828155,25.4970631 24.5242233,28.3555097 22.6755097,28.2467233 L17.9366019,23.5077427 C17.0339806,26.118034 17.6241505,29.1298301 19.7083495,31.2140291 C21.2933252,32.7990777 23.4148058,33.5198058 25.488301,33.3771602 C26.6427913,33.2977184 27.7783495,33.7223058 28.5966505,34.5406796 L30.713835,36.6577913 C28.9776214,37.5915777 27.026966,38.0873786 25,38.0873786 C21.7712864,38.0873786 18.7358981,36.8300728 16.4529126,34.5470874 C14.1699272,32.2641019 12.9126214,29.2287136 12.9126214,26 C12.9126214,22.7712864 14.1699272,19.7358981 16.4529126,17.4529126 C18.7358981,15.1699272 21.7712864,13.9126214 25,13.9126214 C28.2287136,13.9126214 31.2641019,15.1699272 33.5470874,17.4529126 C35.8300728,19.7358981 37.0873786,22.7712864 37.0873786,26 C37.0873786,28.0131311 36.5984223,29.9510437 35.6770146,31.6783738 C35.6770146,31.6783738 36.5984223,29.9510437 35.6770146,31.6783738 L35.6770146,31.6783738 L35.6770146,31.6783738 Z M35.6770146,31.6783738" id="wrench-7-icon-copy" fill="#6F7F89" sketch:type="MSShapeGroup"></path>
    </g>
</svg>