<?xml version="1.0" encoding="UTF-8" standalone="no"?>
<svg width="1230px" height="750px" viewBox="0 0 1230 750" version="1.1" xmlns="http://www.w3.org/2000/svg" xmlns:xlink="http://www.w3.org/1999/xlink" xmlns:sketch="http://www.bohemiancoding.com/sketch/ns">
    <title>Group</title>
    <description>Created with Sketch (http://www.bohemiancoding.com/sketch)</description>
    <defs></defs>
    <g id="Page-1" stroke="none" stroke-width="1" fill="none" fill-rule="evenodd" sketch:type="MSPage">
        <g id="Group" sketch:type="MSLayerGroup" transform="translate(615.000000, 375.000000) rotate(-180.000000) translate(-615.000000, -375.000000) ">
            <path d="M-31.09375,283.183818 C-31.09375,283.183818 -9.91824105,281.883791 41.6640625,260.296735 C103.435359,234.445613 187.739534,188.871406 261.148437,173.817893 C292.660731,167.35586 318.432255,176.361378 414.147559,182.742398 C489.147559,187.742398 585.906225,119.748502 563.147559,159.067166 C540.388901,198.385831 632.594183,114.916662 768.5,159.067171 C813.90625,173.817896 748.90625,129.423731 787.859375,114.423731 C826.812499,99.4237303 906.414058,113.405164 1026.90625,129.423731 C1147.39844,145.442297 1081.30503,64.2932619 1121.21875,76.1529884 C1206.90625,101.613664 1205.90625,64.7123263 1328.90625,114.423732 C1351.10815,123.396803 1373.93273,31.4600544 1384.48437,36.9817461 C1416.53039,53.751474 1401.15625,95.1335053 1401.15625,120.405163 C1401.15625,147.192379 1431.23676,136.372648 1419.82031,159.067168 C1406.63586,185.276257 1341.35992,240.168005 1270.14756,241.742398 C1064.14756,246.296734 921.147559,361.742398 904.147559,311.742398 C894.949384,284.688956 884.147559,265.742398 768.5,375.258552 C652.852438,484.774706 752.147676,360.734036 734.147559,360.742398 C707.147559,360.754941 668.279501,407.384525 651.898437,410.292954 C622.636927,415.488285 583.013504,383.537659 552.90625,385.742398 C510.965535,388.813694 469.757353,425.521473 428.25,431.148808 C412.752243,433.249908 428.14756,374.680662 279.147559,410.292966 C130.147559,445.90527 129.147559,443.742398 130.147559,438.742398 C132.01735,429.393444 207.49219,408.004412 123.147559,421.742398 C38.8029311,435.480385 56.90625,398.742398 5.90625,410.292966 C-45.0937461,421.843535 -31.0937497,419.464199 -31.09375,445.905267" id="Path" fill="#40515E" sketch:type="MSShapeGroup"></path>
            <path d="M-58.4765625,342.023438 C18.9540648,342.023438 64.4392125,311.870023 136.523438,287.84375 C218.465273,260.531853 297.749475,275.312477 380.132812,261.113229 C442.727886,250.324603 493.632386,246.8054 557.132812,240.113229 C617.295038,233.772864 684.709523,217.50538 744.953125,217 C800.135054,216.537082 844.860462,201.582813 899.148438,192 C934.323466,185.790969 970.632356,190.113171 1005.41406,183.664062 C1030.31501,179.047012 1135.6021,182.879623 1158.13281,178.113229 C1222.17786,164.56444 1213.77507,141.95799 1279.07031,137.125 C1308.69784,134.932045 1360.28162,123.864384 1382.55469,151.710937 C1399.2977,172.643621 1361.99256,270.700622 1351.13281,273.113229 C1337.41862,276.159984 1269.07286,279.37052 1255.13281,281.113229 C1181.41387,290.329178 1391.13281,217.113229 1230.13281,223.113229 C1069.13281,229.113229 875.132813,306.113229 953.132812,251.113229 C962.580948,244.451081 832.132812,258.382715 769.132812,273.113229 C706.132813,287.843744 677.132812,303.113229 640.132812,342.023431 C614.386874,369.09856 529.796873,301.11323 429.132812,334.113229 C328.468769,367.113232 375.615345,320.046566 269.132812,356.113229 C207.132812,377.113229 41.1328125,381.531244 -0.8671875,370.113229 C-42.8671841,358.695214 -4.00975636,378.683887 -26.8046875,381.53125 C-50.0624767,384.43643 -72.4378317,404.445312 -94.8671875,404.445312" id="Path" fill="#E25758" sketch:type="MSShapeGroup"></path>
            <path d="M-113.054688,357.780691 C-14.8597427,357.78069 87.2689707,334.11276 184.046875,313.596108 C211.204684,307.838727 237.533429,295.312256 265.226563,289.291421 C289.973376,283.911152 377.530992,263.847925 413.945312,269.9901 C496.945312,283.9901 565.312733,281.72097 705.945312,246.9901 C885.945306,202.536974 1114.94531,233.9901 1044.94531,202.9901 C1032.14293,197.320474 1282.76841,183.981221 1314.55469,180.244546 C1334.87148,177.85618 1357.75123,165.156371 1378.20312,159.580483 C1383.01408,158.268852 1394.71913,154.091248 1390.625,151.244546 C1381.27301,144.741988 1352.26562,124.876437 1340.94531,126.937482 C1324.29083,129.969699 1247.59022,71.141966 1240.94531,89.572962 C1218.71094,151.244543 1086.94531,180.247662 715.945312,180.244548 C552.867454,180.243179 579.945312,232.33829 381.945312,216.9901 C354.858253,214.890416 358.563109,249.060218 346.828125,252.478921 C298.646773,266.515386 240.044611,239.290185 191.414063,256.650796 C115.59215,283.718447 43.9453125,343.780691 -113.054688,343.780691" id="Path" fill="#57DDEF" sketch:type="MSShapeGroup"></path>
        </g>
    </g>
</svg>