<?xml version="1.0" encoding="UTF-8" standalone="no"?>
<svg width="159px" height="36px" viewBox="0 0 159 36" version="1.1" xmlns="http://www.w3.org/2000/svg" xmlns:xlink="http://www.w3.org/1999/xlink" xmlns:sketch="http://www.bohemiancoding.com/sketch/ns">
    <title>logo</title>
    <description>Created with Sketch (http://www.bohemiancoding.com/sketch)</description>
    <defs></defs>
    <g id="Page-1" stroke="none" stroke-width="1" fill="none" fill-rule="evenodd" sketch:type="MSPage">
        <g id="logo" sketch:type="MSArtboardGroup">
            <path d="M30.9818288,9.67 C32.0424479,9.67 32.7585904,8.71068 32.7485804,7.67741 L32.7213936,4.87108 C32.7113836,3.8378101 31.8451483,3 30.7868314,3 L24.0796039,3 C23.0212871,3 22.3113809,3.70673 22.3178873,4.74 L22.3361484,7.64 C22.3365885,7.70989 22.3320242,7.78819 22.3242236,7.87229 C22.2435949,7.53908 22.1892213,7.16846 22.1865551,6.74187 C22.1865551,6.74187 22.1351177,8.51 20.2586824,8.51 L14.6049761,8.51 C13.5447574,8.51 12.5251216,9.50673 12.5283247,10.54 L12.5382498,13.7416 C12.3952758,14.26244 11.9753624,14.31 10.7512596,14.31 L4.78875222,14.31 C3.72653154,14.31 3,15.06342 3,16.0966899 L3,18.9033101 C3,19.9365801 3.72803777,20.69 4.79246063,20.69 L10.7673294,20.69 C12.7411273,20.69 12.5604715,20.90982 12.5660831,22.72 C12.5926888,22.72 12.6458994,23.58072 12.6458994,23.58072 C12.651685,25.4320799 12.6034951,25.33 10.7790166,25.33 L4.79515769,25.33 C3.72913324,25.33 3.00000003,26.28932 3.00000003,27.32259 L3.00000003,30.12892 C3.00000003,31.1621899 3.86623519,32 4.93456198,32 L11.7052287,32 C12.7735554,32 13.4922721,31.29327 13.4887685,30.26 L13.4818853,28.23 C13.4780149,27.08856 13.513962,26.65559 13.9674447,26.49 L21.2579236,26.49 C22.3243484,26.49 23.2696681,25.54953 23.2628852,24.51597 L23.2506059,22.6448899 C23.2388843,20.85878 23.2485295,20.6897099 25.1073109,20.6897099 L31.0821792,20.6897099 C32.1466019,20.6897099 32.8673407,19.9362899 32.8573307,18.90302 L32.830141,16.0963998 C32.820131,15.0631299 32.0863007,14.3097099 31.0240801,14.3097099 L25.0615732,14.3097099 C23.35093,14.3097099 23.2716921,14.1383199 23.2594482,12.2797099 L23.2479857,10.5397099 C23.2612809,9.5766226 23.4649137,9.67 25.0283115,9.67 M13.447469,18.08 L13.4435357,16.92 C13.4375542,15.1559299 13.677332,15.1614399 15.5059425,15.1614399 L20.3157369,15.1614399 C22.2615432,15.1614399 22.3838874,15.1266399 22.3951805,16.92 L22.4024851,18.08 C22.4126185,19.6892099 22.3397334,19.82957 21.0247855,19.83856 C18.7767571,19.8385586 16.1697445,19.8385586 14.7194597,19.8385586" id="typesafe-shape" fill="#53CDEC" sketch:type="MSShapeGroup"></path>
            <path d="M54.0836334,22.9307413 L47.7828599,22.9307413 L46.322226,28 L42.9427202,28 L49.0430146,9.26951876 L52.9380382,9.26951876 L59.0383326,28 L55.5442673,28 L54.0836334,22.9307413 Z M53.3389965,20.3245123 L52.6802793,18.0333219 C52.3747857,17.0404678 52.0836165,16.018989 51.806763,14.9688548 C51.5299094,13.9187206 51.2578333,12.8781487 50.9905264,11.8471079 L50.8759669,11.8471079 C50.60866,12.8972421 50.3413571,13.9425872 50.0740503,14.9831747 C49.8067434,16.0237622 49.5203474,17.0404678 49.2148539,18.0333219 L48.5561366,20.3245123 L53.3389965,20.3245123 Z M60.1552879,20.9832295 C60.1552879,19.8185352 60.3462185,18.7779634 60.7280855,17.8614826 C61.1099524,16.9450019 61.6254651,16.1717329 62.274639,15.5416524 C62.9238128,14.9115719 63.6732155,14.4294721 64.5228695,14.0953385 C65.3725235,13.7612049 66.2651242,13.5941406 67.2006982,13.5941406 C68.117179,13.5941406 68.9143143,13.7516583 69.5921282,14.0666986 C70.2699421,14.3817388 70.8475072,14.7683733 71.3248409,15.2266137 L69.7496475,17.3173249 C69.3677806,16.992738 68.9859193,16.7397549 68.6040523,16.5583681 C68.2221854,16.3769813 67.8116845,16.2862893 67.3725375,16.2862893 C66.2269366,16.2862893 65.3009231,16.7111099 64.5944692,17.5607639 C63.8880153,18.4104179 63.5347937,19.5512284 63.5347937,20.9832295 C63.5347937,22.3961373 63.883242,23.5274012 64.5801493,24.3770552 C65.2770565,25.2267092 66.1792037,25.6515299 67.2866179,25.6515299 C67.8594183,25.6515299 68.3892508,25.5321982 68.8761312,25.2935314 C69.3630116,25.0548645 69.7973788,24.7732419 70.1792457,24.4486549 L71.5539599,26.5393661 C70.8856927,27.1312599 70.1506099,27.5799469 69.3486892,27.8854405 C68.5467686,28.1909341 67.74486,28.3436786 66.9429393,28.3436786 C65.9882719,28.3436786 65.0956712,28.1813875 64.2651106,27.8568006 C63.4345499,27.5322137 62.7137868,27.0548871 62.1027997,26.4248066 C61.4918125,25.7947261 61.014486,25.0214571 60.6708057,24.1049764 C60.3271254,23.1884956 60.1552879,22.1479238 60.1552879,20.9832295 Z M74.7902663,16.5440482 L72.7854748,16.5440482 L72.7854748,14.0810185 L74.9621056,13.9378191 L75.3630639,10.1000753 L78.1124924,10.1000753 L78.1124924,13.9378191 L81.6924773,13.9378191 L81.6924773,16.5440482 L78.1124924,16.5440482 L78.1124924,23.24578 C78.1124924,24.887808 78.771203,25.7088096 80.0886441,25.7088096 C80.3368576,25.7088096 80.5898407,25.68017 80.8476009,25.62289 C81.1053611,25.5656099 81.3392511,25.4892377 81.5492779,25.393771 L82.1220755,27.8281607 C81.7402085,27.9618142 81.3058414,28.0811458 80.818961,28.1861592 C80.3320806,28.2911726 79.8117947,28.3436786 79.2580875,28.3436786 C78.4370736,28.3436786 77.7449501,28.2195737 77.1816963,27.9713601 C76.6184425,27.7231466 76.160209,27.3746982 75.8069821,26.9260045 C75.4537551,26.4773108 75.1959988,25.9427051 75.0337053,25.3221713 C74.8714118,24.7016374 74.7902663,24.0095139 74.7902663,23.24578 L74.7902663,16.5440482 Z M86.3034979,11.4747895 C85.7116041,11.4747895 85.224731,11.3029519 84.8428641,10.9592717 C84.4609971,10.6155914 84.2700665,10.1669044 84.2700665,9.61319731 C84.2700665,9.0594902 84.4609971,8.60602998 84.8428641,8.25280303 C85.224731,7.89957608 85.7116041,7.72296526 86.3034979,7.72296526 C86.8953917,7.72296526 87.3822648,7.89957608 87.7641318,8.25280303 C88.1459988,8.60602998 88.3369294,9.0594902 88.3369294,9.61319731 C88.3369294,10.1669044 88.1459988,10.6155914 87.7641318,10.9592717 C87.3822648,11.3029519 86.8953917,11.4747895 86.3034979,11.4747895 Z M84.6423849,13.9378191 L87.9359711,13.9378191 L87.9359711,28 L84.6423849,28 L84.6423849,13.9378191 Z M90.3990007,13.9378191 L93.7498666,13.9378191 L95.9837772,21.2409884 C96.1747107,21.928349 96.3704146,22.6252457 96.5708948,23.3316996 C96.7713749,24.0381535 96.9670788,24.7541434 97.1580123,25.4796906 L97.2725718,25.4796906 C97.4825986,24.7541434 97.6830758,24.0381535 97.8740093,23.3316996 C98.0649428,22.6252457 98.2654199,21.928349 98.4754467,21.2409884 L100.709357,13.9378191 L103.888384,13.9378191 L99.1055241,28 L95.2964201,28 L90.3990007,13.9378191 Z M105.148539,24.2195359 C105.148539,22.7111614 105.807249,21.5464846 107.12469,20.7254706 C108.442131,19.9044566 110.542368,19.3316647 113.425464,19.0070778 C113.425464,18.6443042 113.377731,18.2958558 113.282264,17.9617222 C113.186798,17.6275886 113.038827,17.3316461 112.838346,17.0738859 C112.637866,16.8161257 112.38011,16.6156486 112.06507,16.4724485 C111.750029,16.3292484 111.353848,16.2576494 110.876515,16.2576494 C110.170061,16.2576494 109.487484,16.3913008 108.828763,16.6586077 C108.170043,16.9259146 107.535198,17.2504966 106.924211,17.6323636 L105.721336,15.4270929 C106.504164,14.9306658 107.377671,14.5010719 108.341885,14.1382983 C109.306099,13.7755247 110.351445,13.5941406 111.477952,13.5941406 C113.253633,13.5941406 114.571055,14.1144265 115.430255,15.155014 C116.289456,16.1956015 116.71905,17.6991801 116.71905,19.665795 L116.71905,28 L114.026901,28 L113.769142,26.4534465 L113.683223,26.4534465 C113.053142,26.9880603 112.380112,27.4367472 111.664111,27.7995208 C110.948111,28.1622945 110.170068,28.3436786 109.329961,28.3436786 C108.088893,28.3436786 107.081734,27.9665906 106.308454,27.2124033 C105.535173,26.458216 105.148539,25.4606035 105.148539,24.2195359 Z M108.356205,23.961777 C108.356205,24.5918575 108.542363,25.050091 108.914683,25.3364912 C109.287003,25.6228914 109.769103,25.7660894 110.360997,25.7660894 C110.933797,25.7660894 111.458856,25.632438 111.93619,25.3651311 C112.413524,25.0978242 112.909943,24.715963 113.425464,24.2195359 L113.425464,21.0691491 C112.470796,21.1837092 111.668888,21.3364537 111.019714,21.5273872 C110.37054,21.7183207 109.850254,21.9331176 109.458841,22.1717845 C109.067427,22.4104514 108.785804,22.6825275 108.613964,22.9880211 C108.442124,23.2935146 108.356205,23.6180967 108.356205,23.961777 Z M121.215511,16.5440482 L119.21072,16.5440482 L119.21072,14.0810185 L121.38735,13.9378191 L121.788309,10.1000753 L124.537737,10.1000753 L124.537737,13.9378191 L128.117722,13.9378191 L128.117722,16.5440482 L124.537737,16.5440482 L124.537737,23.24578 C124.537737,24.887808 125.196448,25.7088096 126.513889,25.7088096 C126.762102,25.7088096 127.015085,25.68017 127.272846,25.62289 C127.530606,25.5656099 127.764496,25.4892377 127.974523,25.393771 L128.54732,27.8281607 C128.165453,27.9618142 127.731086,28.0811458 127.244206,28.1861592 C126.757325,28.2911726 126.237039,28.3436786 125.683332,28.3436786 C124.862318,28.3436786 124.170195,28.2195737 123.606941,27.9713601 C123.043687,27.7231466 122.585454,27.3746982 122.232227,26.9260045 C121.879,26.4773108 121.621244,25.9427051 121.45895,25.3221713 C121.296657,24.7016374 121.215511,24.0095139 121.215511,23.24578 L121.215511,16.5440482 Z M129.864755,20.9832295 C129.864755,19.8185352 130.046139,18.7779634 130.408912,17.8614826 C130.771686,16.9450019 131.263332,16.1717329 131.883866,15.5416524 C132.5044,14.9115719 133.215617,14.4294721 134.017537,14.0953385 C134.819458,13.7612049 135.659553,13.5941406 136.537847,13.5941406 C137.416141,13.5941406 138.261009,13.7612049 139.072476,14.0953385 C139.883943,14.4294721 140.59516,14.9115719 141.206147,15.5416524 C141.817134,16.1717329 142.308781,16.9450019 142.681101,17.8614826 C143.053421,18.7779634 143.239579,19.8185352 143.239579,20.9832295 C143.239579,22.1479238 143.053421,23.1884956 142.681101,24.1049764 C142.308781,25.0214571 141.817134,25.7947261 141.206147,26.4248066 C140.59516,27.0548871 139.883943,27.5322137 139.072476,27.8568006 C138.261009,28.1813875 137.416141,28.3436786 136.537847,28.3436786 C135.659553,28.3436786 134.819458,28.1813875 134.017537,27.8568006 C133.215617,27.5322137 132.5044,27.0548871 131.883866,26.4248066 C131.263332,25.7947261 130.771686,25.0214571 130.408912,24.1049764 C130.046139,23.1884956 129.864755,22.1479238 129.864755,20.9832295 Z M133.244261,20.9832295 C133.244261,22.3961373 133.53543,23.5274012 134.117777,24.3770552 C134.700124,25.2267092 135.506806,25.6515299 136.537847,25.6515299 C137.568888,25.6515299 138.380343,25.2267092 138.972236,24.3770552 C139.56413,23.5274012 139.860073,22.3961373 139.860073,20.9832295 C139.860073,19.5512284 139.56413,18.4104179 138.972236,17.5607639 C138.380343,16.7111099 137.568888,16.2862893 136.537847,16.2862893 C135.506806,16.2862893 134.700124,16.7111099 134.117777,17.5607639 C133.53543,18.4104179 133.244261,19.5512284 133.244261,20.9832295 Z M146.504525,13.9378191 L149.225313,13.9378191 L149.454432,16.4294886 L149.568992,16.4294886 C150.065419,15.5130079 150.66685,14.8113379 151.373304,14.3244575 C152.079758,13.8375771 152.805295,13.5941406 153.549935,13.5941406 C154.218202,13.5941406 154.752808,13.6896059 155.153768,13.8805394 L154.580971,16.7445273 C154.332757,16.6681539 154.103641,16.6108747 153.893614,16.572688 C153.683587,16.5345014 153.425831,16.5154083 153.120337,16.5154083 C152.56663,16.5154083 151.984291,16.7302052 151.373304,17.1598056 C150.762317,17.5894059 150.237258,18.3388086 149.798111,19.4080361 L149.798111,28 L146.504525,28 L146.504525,13.9378191 Z" id="Activator" fill="#FFFFFF" sketch:type="MSShapeGroup"></path>
        </g>
    </g>
</svg>