<?xml version="1.0" encoding="UTF-8" standalone="no"?>
<svg width="181px" height="31px" viewBox="0 0 181 31" version="1.1" xmlns="http://www.w3.org/2000/svg" xmlns:xlink="http://www.w3.org/1999/xlink" xmlns:sketch="http://www.bohemiancoding.com/sketch/ns">
    <title>Slice 1</title>
    <description>Created with Sketch (http://www.bohemiancoding.com/sketch)</description>
    <defs></defs>
    <g id="Page-1" stroke="none" stroke-width="1" fill="none" fill-rule="evenodd" sketch:type="MSPage">
        <g id="Activator-+-Shape" sketch:type="MSLayerGroup" transform="translate(0.000000, -8.000000)">
            <text id="Activator" fill="#FFFFFF" sketch:type="MSTextLayer" font-family="Source Sans Pro" font-size="36" font-weight="526">
                <tspan x="40" y="35">Activator</tspan>
            </text>
            <path d="M27.9818288,16.67 C29.0424479,16.67 29.7585904,15.71068 29.7485804,14.67741 L29.7213936,11.87108 C29.7113836,10.8378101 28.8451483,10 27.7868314,10 L21.0796039,10 C20.0212871,10 19.3113809,10.70673 19.3178873,11.74 L19.3361484,14.64 C19.3365885,14.70989 19.3320242,14.78819 19.3242236,14.87229 C19.2435949,14.53908 19.1892213,14.16846 19.1865551,13.74187 C19.1865551,13.74187 19.1351177,15.51 17.2586824,15.51 L11.6049761,15.51 C10.5447574,15.51 9.52512156,16.50673 9.52832473,17.54 L9.53824979,20.7416 C9.39527584,21.26244 8.97536238,21.31 7.75125963,21.31 L1.78875222,21.31 C0.726531538,21.31 0,22.06342 0,23.0966899 L0,25.9033101 C0,26.9365801 0.728037772,27.69 1.79246063,27.69 L7.76732942,27.69 C9.74112728,27.69 9.5604715,27.90982 9.56608312,29.72 C9.59268878,29.72 9.64589943,30.58072 9.64589943,30.58072 C9.65168498,32.4320799 9.6034951,32.33 7.77901656,32.33 L1.79515769,32.33 C0.729133241,32.33 2.67582424e-08,33.28932 2.6767191e-08,34.32259 L2.67915e-08,37.12892 C2.68004486e-08,38.1621899 0.866235187,39 1.93456198,39 L8.70522866,39 C9.77355539,39 10.4922721,38.29327 10.4887685,37.26 L10.4818853,35.23 C10.4780149,34.08856 10.513962,33.65559 10.9674447,33.49 L18.2579236,33.49 C19.3243484,33.49 20.2696681,32.54953 20.2628852,31.51597 L20.2506059,29.6448899 C20.2388843,27.85878 20.2485295,27.6897099 22.1073109,27.6897099 L28.0821792,27.6897099 C29.1466019,27.6897099 29.8673407,26.9362899 29.8573307,25.90302 L29.830141,23.0963998 C29.820131,22.0631299 29.0863007,21.3097099 28.0240801,21.3097099 L22.0615732,21.3097099 C20.35093,21.3097099 20.2716921,21.1383199 20.2594482,19.2797099 L20.2479857,17.5397099 C20.2612809,16.5766226 20.4649137,16.67 22.0283115,16.67 M10.447469,25.08 L10.4435357,23.92 C10.4375542,22.1559299 10.677332,22.1614399 12.5059425,22.1614399 L17.3157369,22.1614399 C19.2615432,22.1614399 19.3838874,22.1266399 19.3951805,23.92 L19.4024851,25.08 C19.4126185,26.6892099 19.3397334,26.82957 18.0247855,26.83856 C15.7767571,26.8385586 13.1697445,26.8385586 11.7194597,26.8385586" id="Shape" fill="#53CDEC" sketch:type="MSShapeGroup"></path>
        </g>
    </g>
</svg>