<?xml version="1.0" encoding="UTF-8" standalone="no"?>
<svg width="57px" height="54px" viewBox="0 0 57 54" version="1.1" xmlns="http://www.w3.org/2000/svg" xmlns:xlink="http://www.w3.org/1999/xlink" xmlns:sketch="http://www.bohemiancoding.com/sketch/ns">
    <title>Slice 1</title>
    <description>Created with Sketch (http://www.bohemiancoding.com/sketch)</description>
    <defs></defs>
    <g id="Page-1" stroke="none" stroke-width="1" fill="none" fill-rule="evenodd" sketch:type="MSPage">
        <path d="M9.57463915,7.73044738 L9.57463915,10.5588745 L13.8172798,10.5588745 L13.8910807,14.8015152 L16.645707,14.8015152 L16.645707,7.73044738 L9.57463915,7.73044738 Z" id="Rectangle-1" fill="#C3D3DD" sketch:type="MSShapeGroup" transform="translate(13.376154, 11.000000) rotate(-315.000000) translate(-13.376154, -11.000000) "></path>
        <path d="M38.8467171,7.73044738 L38.8467171,10.5588745 L43.0893578,10.5588745 L43.1631586,14.8015152 L45.9177849,14.8015152 L45.9177849,7.73044738 L38.8467171,7.73044738 Z" id="Rectangle-1-copy" fill="#C3D3DD" sketch:type="MSShapeGroup" transform="translate(42.648232, 11.000000) rotate(-135.000000) translate(-42.648232, -11.000000) "></path>
        <path d="M9.57463915,37.7304474 L9.57463915,40.5588745 L13.8172798,40.5588745 L13.8910807,44.8015152 L16.645707,44.8015152 L16.645707,37.7304474 L9.57463915,37.7304474 Z" id="Rectangle-1-copy" fill-opacity="0.402975643" fill="#C2D2DC" sketch:type="MSShapeGroup" transform="translate(13.376154, 41.000000) rotate(-315.000000) translate(-13.376154, -41.000000) "></path>
        <path d="M38.8467171,37.7304474 L38.8467171,40.5588745 L43.0893578,40.5588745 L43.1631586,44.8015152 L45.9177849,44.8015152 L45.9177849,37.7304474 L38.8467171,37.7304474 Z" id="Rectangle-1-copy-2" fill-opacity="0.402975643" fill="#C2D2DC" sketch:type="MSShapeGroup" transform="translate(42.648232, 41.000000) rotate(-135.000000) translate(-42.648232, -41.000000) "></path>
    </g>
</svg>