<?xml version="1.0" encoding="UTF-8" standalone="no"?>
<svg width="85px" height="21px" viewBox="0 0 85 21" version="1.1" xmlns="http://www.w3.org/2000/svg" xmlns:xlink="http://www.w3.org/1999/xlink" xmlns:sketch="http://www.bohemiancoding.com/sketch/ns">
    <title>typesafe</title>
    <description>Created with Sketch (http://www.bohemiancoding.com/sketch)</description>
    <defs></defs>
    <g id="Page-1" stroke="none" stroke-width="1" fill="none" fill-rule="evenodd" sketch:type="MSPage">
        <path d="M21.0000728,5 C22,5 22,5 21.9799651,4 L21.9799651,1 C22,0 22,0 21.0000728,0 L14.9194748,0 C14.0000486,0 14.0000486,0 14.0000486,1 L14.0000486,3 C14.0000486,3 14.0000486,4 13.0000451,4 L8.08122481,4 C7.10746035,4 7.10746035,4 7.10746035,5 L7.10746035,7 C7.10746035,8 7.10746035,8 6.00002081,8 L1.00000347,8 C1.97409822e-08,8 1.97409822e-08,8 0,9.03219996 L1.97409822e-08,11.9678001 C1.97409822e-08,13 1.97409822e-08,13 1.00000346,13 L6.00002081,13 C7.45438906,13 7.10746035,13 7.00002428,14 C7.01962833,14 7.00002428,15 7.00002428,15 C7.00002428,16 7.00002428,16 6.00002081,16 L1.00000347,16 C1.97409822e-08,16 1.97409822e-08,16 1.97409814e-08,17 L1.97409814e-08,20 C1.97409822e-08,21 1.97409822e-08,21 1.00000347,21 L7.00002428,21 C8.08122444,21 8.08122444,21 8.08122481,20 L8.08122481,18 C8.08122444,17 8.08122444,17 9,17 L14.0000486,17 C14.9279206,17 14.9279206,17 14.9279206,16 L14.9279206,14 C14.9279206,13 14.9279206,13 16.0000555,13 L21.0000728,13 C22,13 22,13 22,11.9678001 L22,9.03219986 C22,8 22,8 21.0000728,8 L16.0000555,8 C14.9279206,8 14.9279203,8 14.9279203,7 L14.9279206,6 C14.9279203,5 14.9279203,5 16.0000555,5 M8.00002776,10.0149339 C8.00002777,9.01493389 8.00002777,9.01493389 9.00003122,9.01493389 L13.000045,9.01493389 C14.0000485,9.01493389 14.0000485,9.01493389 14.0000485,10.0149339 L14.0000485,11.0149338 C14.0000483,12.0149339 13.9689478,12.0087338 13.000045,12.0149338 C11.3436134,12.0149329 10.0686554,12.0149338 9.00003121,12.0149338 C8.00002777,12.0149339 8.00002792,12.0149339 8.00002777,11.0149338" id="Shape" fill="#FFFFFF" sketch:type="MSShapeGroup"></path>
        <path d="M27.112,3.004 L35.204,3.004 L35.204,4.516 L32.026,4.516 L32.026,13 L30.276,13 L30.276,4.516 L27.112,4.516 L27.112,3.004 Z M33.79,5.762 L35.54,5.762 L37.43,11.166 L37.458,11.166 L39.292,5.762 L40.958,5.762 L38.144,13.392 C38.0133327,13.7186683 37.8850006,14.0313318 37.759,14.33 C37.6329994,14.6286682 37.4790009,14.8923322 37.297,15.121 C37.1149991,15.3496678 36.888668,15.531666 36.618,15.667 C36.347332,15.802334 36.0020021,15.87 35.582,15.87 C35.2086648,15.87 34.8400018,15.8420003 34.476,15.786 L34.476,14.442 C34.6066673,14.4606668 34.7326661,14.4816665 34.854,14.505 C34.9753339,14.5283334 35.1013327,14.54 35.232,14.54 C35.4186676,14.54 35.5726661,14.5166669 35.694,14.47 C35.8153339,14.4233331 35.9156663,14.3556671 35.995,14.267 C36.0743337,14.1783329 36.1419997,14.0733339 36.198,13.952 C36.2540003,13.8306661 36.3053331,13.6906675 36.352,13.532 L36.534,12.972 L33.79,5.762 Z M41.896,5.762 L43.408,5.762 L43.408,6.742 L43.436,6.742 C43.6600011,6.3219979 43.9726647,6.02100091 44.374,5.839 C44.7753353,5.65699909 45.209331,5.566 45.676,5.566 C46.2453362,5.566 46.7423312,5.66633233 47.167,5.867 C47.5916688,6.06766767 47.9439986,6.34299825 48.224,6.693 C48.5040014,7.04300175 48.7139993,7.451331 48.854,7.918 C48.9940007,8.384669 49.064,8.88399734 49.064,9.416 C49.064,9.90133576 49.0010006,10.3726644 48.875,10.83 C48.7489994,11.2873356 48.5576679,11.6909983 48.301,12.041 C48.0443321,12.3910017 47.720002,12.670999 47.328,12.881 C46.935998,13.091001 46.4740027,13.196 45.942,13.196 C45.7086655,13.196 45.4753345,13.1750002 45.242,13.133 C45.0086655,13.0909998 44.7846677,13.0233338 44.57,12.93 C44.3553323,12.8366662 44.1570009,12.7176674 43.975,12.573 C43.7929991,12.4283326 43.6413339,12.258001 43.52,12.062 L43.492,12.062 L43.492,15.674 L41.896,15.674 L41.896,5.762 Z M47.468,9.388 C47.468,9.0613317 47.4260004,8.74400154 47.342,8.436 C47.2579996,8.12799846 47.1320008,7.85500119 46.964,7.617 C46.7959992,7.37899881 46.5860013,7.18766739 46.334,7.043 C46.0819987,6.89833261 45.7926683,6.826 45.466,6.826 C44.7939966,6.826 44.2876684,7.059331 43.947,7.526 C43.6063316,7.992669 43.436,8.61332946 43.436,9.388 C43.436,9.75200182 43.4803329,10.0903318 43.569,10.403 C43.6576671,10.7156682 43.7906658,10.9839989 43.968,11.208 C44.1453342,11.4320011 44.3576654,11.6093327 44.605,11.74 C44.8523346,11.8706673 45.1393317,11.936 45.466,11.936 C45.8300018,11.936 46.1379987,11.8613341 46.39,11.712 C46.6420013,11.5626659 46.8496659,11.3690012 47.013,11.131 C47.1763342,10.8929988 47.2929997,10.6223348 47.363,10.319 C47.4330003,10.0156651 47.468,9.70533492 47.468,9.388 C47.468,9.388 47.468,9.70533492 47.468,9.388 Z M51.654,9.794 C51.654,10.0740014 51.6936663,10.3446654 51.773,10.606 C51.8523337,10.8673346 51.9713325,11.095999 52.13,11.292 C52.2886675,11.488001 52.4893321,11.6443327 52.732,11.761 C52.9746679,11.8776673 53.2639983,11.936 53.6,11.936 C54.066669,11.936 54.4423319,11.8356677 54.727,11.635 C55.0116681,11.4343323 55.2239993,11.1333353 55.364,10.732 L56.876,10.732 C56.7919996,11.124002 56.6473344,11.4739985 56.442,11.782 C56.2366656,12.0900015 55.9893348,12.348999 55.7,12.559 C55.4106652,12.769001 55.0863351,12.9276661 54.727,13.035 C54.3676649,13.1423339 53.992002,13.196 53.6,13.196 C53.0306638,13.196 52.5266689,13.1026676 52.088,12.916 C51.6493311,12.7293324 51.2783348,12.4680017 50.975,12.132 C50.6716651,11.7959983 50.4430008,11.394669 50.289,10.928 C50.1349992,10.461331 50.058,9.9480028 50.058,9.388 C50.058,8.8746641 50.1396659,8.38700231 50.303,7.925 C50.4663341,7.46299769 50.6996651,7.05700175 51.003,6.707 C51.3063348,6.35699825 51.6726645,6.07933436 52.102,5.874 C52.5313355,5.66866564 53.016664,5.566 53.558,5.566 C54.1273362,5.566 54.6383311,5.68499881 55.091,5.923 C55.5436689,6.16100119 55.9193318,6.47599804 56.218,6.868 C56.5166682,7.26000196 56.733666,7.71033079 56.869,8.219 C57.004334,8.72766921 57.0393337,9.25266396 56.974,9.794 C56.974,9.794 57.0393337,9.25266396 56.974,9.794 L51.654,9.794 Z M55.378,8.744 C55.3593332,8.49199874 55.3056671,8.2493345 55.217,8.016 C55.1283329,7.7826655 55.0070008,7.57966753 54.853,7.407 C54.6989992,7.23433247 54.5123344,7.09433387 54.293,6.987 C54.0736656,6.87966613 53.828668,6.826 53.558,6.826 C53.2779986,6.826 53.0236678,6.87499951 52.795,6.973 C52.5663322,7.07100049 52.3703341,7.20633247 52.207,7.379 C52.0436658,7.55166753 51.9130005,7.7546655 51.815,7.988 C51.7169995,8.2213345 51.6633334,8.47333198 51.654,8.744 C51.654,8.744 51.6633334,8.47333198 51.654,8.744 L55.378,8.744 Z M59.396,10.676 C59.4426669,11.142669 59.6199985,11.4693324 59.928,11.656 C60.2360015,11.8426676 60.6046645,11.936 61.034,11.936 C61.1833341,11.936 61.3536657,11.9243335 61.545,11.901 C61.7363343,11.8776666 61.9159992,11.8333337 62.084,11.768 C62.2520008,11.7026663 62.3896661,11.6070006 62.497,11.481 C62.6043339,11.3549994 62.6533334,11.1893344 62.644,10.984 C62.6346666,10.7786656 62.5600007,10.6106673 62.42,10.48 C62.2799993,10.3493327 62.1003344,10.2443337 61.881,10.165 C61.6616656,10.0856663 61.4120014,10.0180003 61.132,9.962 C60.8519986,9.90599972 60.5673348,9.84533366 60.278,9.78 C59.9793318,9.71466634 59.6923347,9.6353338 59.417,9.542 C59.1416653,9.4486662 58.8943344,9.32266746 58.675,9.164 C58.4556656,9.00533254 58.2806673,8.80233457 58.15,8.555 C58.0193327,8.30766543 57.954,8.00200182 57.954,7.638 C57.954,7.24599804 58.0496657,6.91700133 58.241,6.651 C58.4323343,6.38499867 58.6749985,6.17033415 58.969,6.007 C59.2630015,5.84366585 59.5896649,5.72933366 59.949,5.664 C60.3083351,5.59866634 60.6513317,5.566 60.978,5.566 C61.3513352,5.566 61.7083316,5.60566627 62.049,5.685 C62.3896684,5.76433373 62.6976653,5.89266578 62.973,6.07 C63.2483347,6.24733422 63.4769991,6.47833191 63.659,6.763 C63.8410009,7.04766809 63.9553331,7.39066466 64.002,7.792 L62.336,7.792 C62.261333,7.40933142 62.0863347,7.15266732 61.811,7.022 C61.5356653,6.89133268 61.2206684,6.826 60.866,6.826 C60.7539994,6.826 60.6210008,6.83533324 60.467,6.854 C60.3129992,6.87266676 60.168334,6.90766641 60.033,6.959 C59.897666,7.01033359 59.7833338,7.08499951 59.69,7.183 C59.5966662,7.28100049 59.55,7.40933254 59.55,7.568 C59.55,7.76400098 59.617666,7.92266606 59.753,8.044 C59.888334,8.16533394 60.0656656,8.26566627 60.285,8.345 C60.5043344,8.42433373 60.7539986,8.49199972 61.034,8.548 C61.3140014,8.60400028 61.6033318,8.66466634 61.902,8.73 C62.1913348,8.79533366 62.4759986,8.8746662 62.756,8.968 C63.0360014,9.0613338 63.2856656,9.18733254 63.505,9.346 C63.7243344,9.50466746 63.901666,9.70533212 64.037,9.948 C64.172334,10.1906679 64.24,10.4893316 64.24,10.844 C64.24,11.2733355 64.142001,11.6373318 63.946,11.936 C63.749999,12.2346682 63.4956682,12.4773324 63.183,12.664 C62.8703318,12.8506676 62.5226686,12.9859996 62.14,13.07 C61.7573314,13.1540004 61.3793352,13.196 61.006,13.196 C60.5486644,13.196 60.1263353,13.1446672 59.739,13.042 C59.3516647,12.9393328 59.0156681,12.783001 58.731,12.573 C58.4463319,12.3629989 58.2223341,12.1016682 58.059,11.789 C57.8956659,11.4763318 57.8093334,11.1053355 57.8,10.676 C57.8,10.676 57.8093334,11.1053355 57.8,10.676 L59.396,10.676 Z M71.52,11.39 C71.52,11.586001 71.5456664,11.7259996 71.597,11.81 C71.6483336,11.8940004 71.7486659,11.936 71.898,11.936 L72.066,11.936 C72.1313337,11.936 72.2059996,11.9266668 72.29,11.908 L72.29,13.014 C72.2339997,13.0326668 72.1616671,13.0536666 72.073,13.077 C71.9843329,13.1003334 71.8933338,13.1213332 71.8,13.14 C71.7066662,13.1586668 71.6133338,13.1726666 71.52,13.182 C71.4266662,13.1913334 71.3473337,13.196 71.282,13.196 C70.9553317,13.196 70.6846677,13.1306673 70.47,13 C70.2553323,12.8693327 70.1153337,12.6406683 70.05,12.314 C69.7326651,12.6220015 69.3430023,12.8459993 68.881,12.986 C68.4189977,13.1260007 67.9733355,13.196 67.544,13.196 C67.2173317,13.196 66.9046682,13.1516671 66.606,13.063 C66.3073318,12.9743329 66.0436678,12.8436675 65.815,12.671 C65.5863322,12.4983325 65.404334,12.2790013 65.269,12.013 C65.133666,11.7469987 65.066,11.4366684 65.066,11.082 C65.066,10.6339978 65.1476659,10.2700014 65.311,9.99 C65.4743342,9.7099986 65.6889987,9.49066746 65.955,9.332 C66.2210013,9.17333254 66.519665,9.05900035 66.851,8.989 C67.182335,8.91899965 67.5159983,8.86533352 67.852,8.828 C68.1413348,8.77199972 68.4166654,8.73233345 68.678,8.709 C68.9393346,8.68566655 69.1703323,8.64600028 69.371,8.59 C69.5716677,8.53399972 69.7303328,8.44766725 69.847,8.331 C69.9636672,8.21433275 70.022,8.0393345 70.022,7.806 C70.022,7.60066564 69.9730005,7.43266732 69.875,7.302 C69.7769995,7.17133268 69.6556674,7.07100035 69.511,7.001 C69.3663326,6.93099965 69.2053342,6.88433345 69.028,6.861 C68.8506658,6.83766655 68.6826675,6.826 68.524,6.826 C68.0759978,6.826 67.7073348,6.9193324 67.418,7.106 C67.1286652,7.2926676 66.9653335,7.58199804 66.928,7.974 L65.332,7.974 C65.3600001,7.507331 65.471999,7.12000154 65.668,6.812 C65.864001,6.50399846 66.1136652,6.2566676 66.417,6.07 C66.7203349,5.8833324 67.0633314,5.75266704 67.446,5.678 C67.8286686,5.60333296 68.2206647,5.566 68.622,5.566 C68.9766684,5.566 69.3266649,5.60333296 69.672,5.678 C70.0173351,5.75266704 70.3276653,5.87399916 70.603,6.042 C70.8783347,6.21000084 71.0999992,6.42699867 71.268,6.693 C71.4360008,6.95900133 71.52,7.28333142 71.52,7.666 C71.52,7.666 71.52,7.28333142 71.52,7.666 L71.52,11.39 Z M69.924,9.374 C69.6813321,9.53266746 69.3826684,9.62833317 69.028,9.661 C68.6733316,9.69366683 68.3186684,9.74266634 67.964,9.808 C67.7959992,9.83600014 67.6326675,9.87566641 67.474,9.927 C67.3153325,9.97833359 67.1753339,10.0483329 67.054,10.137 C66.9326661,10.2256671 66.8370003,10.3423326 66.767,10.487 C66.6969997,10.6316674 66.662,10.8066656 66.662,11.012 C66.662,11.1893342 66.7133328,11.3386661 66.816,11.46 C66.9186672,11.5813339 67.0423326,11.6769996 67.187,11.747 C67.3316674,11.8170004 67.4903325,11.8659999 67.663,11.894 C67.8356675,11.9220001 67.9919993,11.936 68.132,11.936 C68.3093342,11.936 68.5006656,11.9126669 68.706,11.866 C68.9113344,11.8193331 69.1049991,11.7400006 69.287,11.628 C69.4690009,11.5159994 69.6206661,11.3736675 69.742,11.201 C69.8633339,11.0283325 69.924,10.8160013 69.924,10.564 C69.924,10.564 69.924,10.8160013 69.924,10.564 L69.924,9.374 Z M72.528,5.762 L73.718,5.762 L73.718,5.16 C73.718,4.70266438 73.7739994,4.33166809 73.886,4.047 C73.9980006,3.76233191 74.1473324,3.54300077 74.334,3.389 C74.5206676,3.23499923 74.7329988,3.13233359 74.971,3.081 C75.2090012,3.02966641 75.4586654,3.004 75.72,3.004 C76.2333359,3.004 76.6066655,3.03666634 76.84,3.102 L76.84,4.348 C76.7373328,4.31999986 76.6276673,4.29900007 76.511,4.285 C76.3943327,4.27099993 76.2566675,4.264 76.098,4.264 C75.8833323,4.264 75.6990008,4.31533282 75.545,4.418 C75.3909992,4.52066718 75.314,4.72133184 75.314,5.02 L75.314,5.762 L76.672,5.762 L76.672,6.952 L75.314,6.952 L75.314,13 L73.718,13 L73.718,6.952 L72.528,6.952 L72.528,5.762 Z M78.898,9.794 C78.898,10.0740014 78.9376663,10.3446654 79.017,10.606 C79.0963337,10.8673346 79.2153325,11.095999 79.374,11.292 C79.5326675,11.488001 79.7333321,11.6443327 79.976,11.761 C80.2186679,11.8776673 80.5079983,11.936 80.844,11.936 C81.310669,11.936 81.6863319,11.8356677 81.971,11.635 C82.2556681,11.4343323 82.4679993,11.1333353 82.608,10.732 L84.12,10.732 C84.0359996,11.124002 83.8913344,11.4739985 83.686,11.782 C83.4806656,12.0900015 83.2333348,12.348999 82.944,12.559 C82.6546652,12.769001 82.3303351,12.9276661 81.971,13.035 C81.6116649,13.1423339 81.236002,13.196 80.844,13.196 C80.2746638,13.196 79.7706689,13.1026676 79.332,12.916 C78.8933311,12.7293324 78.5223348,12.4680017 78.219,12.132 C77.9156651,11.7959983 77.6870008,11.394669 77.533,10.928 C77.3789992,10.461331 77.302,9.9480028 77.302,9.388 C77.302,8.8746641 77.3836658,8.38700231 77.547,7.925 C77.7103341,7.46299769 77.9436652,7.05700175 78.247,6.707 C78.5503349,6.35699825 78.9166645,6.07933436 79.346,5.874 C79.7753355,5.66866564 80.260664,5.566 80.802,5.566 C81.3713362,5.566 81.8823311,5.68499881 82.335,5.923 C82.7876689,6.16100119 83.1633318,6.47599804 83.462,6.868 C83.7606682,7.26000196 83.977666,7.71033079 84.113,8.219 C84.248334,8.72766921 84.2833337,9.25266396 84.218,9.794 C84.218,9.794 84.2833337,9.25266396 84.218,9.794 L78.898,9.794 Z M82.622,8.744 C82.6033332,8.49199874 82.5496671,8.2493345 82.461,8.016 C82.3723329,7.7826655 82.2510008,7.57966753 82.097,7.407 C81.9429992,7.23433247 81.7563344,7.09433387 81.537,6.987 C81.3176656,6.87966613 81.072668,6.826 80.802,6.826 C80.5219986,6.826 80.2676678,6.87499951 80.039,6.973 C79.8103322,7.07100049 79.6143341,7.20633247 79.451,7.379 C79.2876658,7.55166753 79.1570005,7.7546655 79.059,7.988 C78.9609995,8.2213345 78.9073334,8.47333198 78.898,8.744 C78.898,8.744 78.9073334,8.47333198 78.898,8.744 L82.622,8.744 Z M82.622,8.744" id="Typesafe" fill="#FFFFFF" sketch:type="MSShapeGroup"></path>
    </g>
</svg>