<?xml version="1.0" encoding="UTF-8" standalone="no"?>
<svg width="81px" height="18px" viewBox="0 0 81 18" version="1.1" xmlns="http://www.w3.org/2000/svg" xmlns:xlink="http://www.w3.org/1999/xlink" xmlns:sketch="http://www.bohemiancoding.com/sketch/ns">
    <title>typesafe</title>
    <description>Created with Sketch (http://www.bohemiancoding.com/sketch)</description>
    <defs></defs>
    <g id="Page-1" stroke="none" stroke-width="1" fill="none" fill-rule="evenodd" sketch:type="MSPage">
        <g id="Artboard-1-copy" sketch:type="MSArtboardGroup" transform="translate(-234.000000, -57.000000)" fill="#FFFFFF">
            <path d="M252,62 C252.63941,62 253.006035,61.57008 253,61 L253,59 C252.993965,58.42992 252.638022,58 252,58 L248,58 C247.361978,58 246.996077,58.42992 247,59 C247,59 247.001607,60.23536 247,60 C247,60 247.131237,61 246,61 L241.996233,61.04 C241.357065,61.04 240.998069,61.42992 241,62 L241,63 C240.913806,63.28736 240.737969,64 240,64 L236,64 C235.359624,64 235,64.65568 235,65.22576 L235,65 L235,67 C235,67.57008 235.358297,68 236,68 C236,68 239.955847,67.9995489 240,68 C241.042567,68.0106522 240.996754,68.0418575 241,69 C241.003488,70.02144 241.099914,70 240,70 L236,70 C235.357331,70 235,70.42992 235,71 L235,73 C235,73.57008 235.355943,74 236,74 L240,74 C240.644057,74 241.002112,73.57008 241,73 L241,72 C240.997667,71.37024 240.726611,71.09136 241,71 L246,71 C246.64291,71 247.004089,70.57024 247,70 L247,69 C246.992933,68.01456 246.879406,68 248,68 L252,68 C252.641703,68 253.006035,67.57008 253,67 L253,65 C252.993965,64.42992 252.640376,64 252,64 L248,64 C246.968713,64 247.007381,64.02544 247,63 C247.008015,62.4686415 247,62 248,62 M241.002706,66.2480237 L241.000072,65.7519971 C240.996066,64.9976646 241.156635,65.0000208 242.381176,65.0000208 L245.602087,65.0000208 C246.905109,65.0000208 246.987038,64.98514 246.9946,65.7519971 L246.999492,66.2480237 C247.006278,66.9361365 246.95747,66.9961558 246.076906,67 C244.571499,66.9999994 242.825696,66.9999994 241.854503,66.9999994" id="Shape" sketch:type="MSShapeGroup"></path>
            <path d="M257.112,60.004 L265.204,60.004 L265.204,61.516 L262.026,61.516 L262.026,70 L260.276,70 L260.276,61.516 L257.112,61.516 L257.112,60.004 Z M263.79,62.762 L265.54,62.762 L267.43,68.166 L267.458,68.166 L269.292,62.762 L270.958,62.762 L268.144,70.392 C268.013333,70.7186683 267.885001,71.0313318 267.759,71.33 C267.632999,71.6286682 267.479001,71.8923322 267.297,72.121 C267.114999,72.3496678 266.888668,72.531666 266.618,72.667 C266.347332,72.802334 266.002002,72.87 265.582,72.87 C265.208665,72.87 264.840002,72.8420003 264.476,72.786 L264.476,71.442 C264.606667,71.4606668 264.732666,71.4816665 264.854,71.505 C264.975334,71.5283335 265.101333,71.54 265.232,71.54 C265.418668,71.54 265.572666,71.5166669 265.694,71.47 C265.815334,71.4233331 265.915666,71.3556671 265.995,71.267 C266.074334,71.1783329 266.142,71.0733339 266.198,70.952 C266.254,70.8306661 266.305333,70.6906675 266.352,70.532 L266.534,69.972 L263.79,62.762 Z M271.896,62.762 L273.408,62.762 L273.408,63.742 L273.436,63.742 C273.660001,63.3219979 273.972665,63.0210009 274.374,62.839 C274.775335,62.6569991 275.209331,62.566 275.676,62.566 C276.245336,62.566 276.742331,62.6663323 277.167,62.867 C277.591669,63.0676677 277.943999,63.3429983 278.224,63.693 C278.504001,64.0430018 278.713999,64.451331 278.854,64.918 C278.994001,65.384669 279.064,65.8839973 279.064,66.416 C279.064,66.9013358 279.001001,67.3726644 278.875,67.83 C278.748999,68.2873356 278.557668,68.6909983 278.301,69.041 C278.044332,69.3910018 277.720002,69.6709989 277.328,69.881 C276.935998,70.0910011 276.474003,70.196 275.942,70.196 C275.708665,70.196 275.475334,70.1750002 275.242,70.133 C275.008666,70.0909998 274.784668,70.0233338 274.57,69.93 C274.355332,69.8366662 274.157001,69.7176674 273.975,69.573 C273.792999,69.4283326 273.641334,69.258001 273.52,69.062 L273.492,69.062 L273.492,72.674 L271.896,72.674 L271.896,62.762 Z M277.468,66.388 C277.468,66.0613317 277.426,65.7440015 277.342,65.436 C277.258,65.1279985 277.132001,64.8550012 276.964,64.617 C276.795999,64.3789988 276.586001,64.1876674 276.334,64.043 C276.081999,63.8983326 275.792668,63.826 275.466,63.826 C274.793997,63.826 274.287668,64.059331 273.947,64.526 C273.606332,64.992669 273.436,65.6133295 273.436,66.388 C273.436,66.7520018 273.480333,67.0903318 273.569,67.403 C273.657667,67.7156682 273.790666,67.9839989 273.968,68.208 C274.145334,68.4320011 274.357665,68.6093327 274.605,68.74 C274.852335,68.8706673 275.139332,68.936 275.466,68.936 C275.830002,68.936 276.137999,68.8613341 276.39,68.712 C276.642001,68.5626659 276.849666,68.3690012 277.013,68.131 C277.176334,67.8929988 277.293,67.6223349 277.363,67.319 C277.433,67.0156652 277.468,66.7053349 277.468,66.388 Z M281.654,66.794 C281.654,67.0740014 281.693666,67.3446654 281.773,67.606 C281.852334,67.8673346 281.971333,68.095999 282.13,68.292 C282.288667,68.488001 282.489332,68.6443328 282.732,68.761 C282.974668,68.8776673 283.263998,68.936 283.6,68.936 C284.066669,68.936 284.442332,68.8356677 284.727,68.635 C285.011668,68.4343323 285.223999,68.1333353 285.364,67.732 L286.876,67.732 C286.792,68.124002 286.647334,68.4739985 286.442,68.782 C286.236666,69.0900015 285.989335,69.3489989 285.7,69.559 C285.410665,69.769001 285.086335,69.9276661 284.727,70.035 C284.367665,70.1423339 283.992002,70.196 283.6,70.196 C283.030664,70.196 282.526669,70.1026676 282.088,69.916 C281.649331,69.7293324 281.278335,69.4680017 280.975,69.132 C280.671665,68.7959983 280.443001,68.394669 280.289,67.928 C280.134999,67.461331 280.058,66.9480028 280.058,66.388 C280.058,65.8746641 280.139666,65.3870023 280.303,64.925 C280.466334,64.4629977 280.699665,64.0570017 281.003,63.707 C281.306335,63.3569983 281.672665,63.0793344 282.102,62.874 C282.531335,62.6686656 283.016664,62.566 283.558,62.566 C284.127336,62.566 284.638331,62.6849988 285.091,62.923 C285.543669,63.1610012 285.919332,63.475998 286.218,63.868 C286.516668,64.260002 286.733666,64.7103308 286.869,65.219 C287.004334,65.7276692 287.039334,66.252664 286.974,66.794 L281.654,66.794 Z M285.378,65.744 C285.359333,65.4919987 285.305667,65.2493345 285.217,65.016 C285.128333,64.7826655 285.007001,64.5796675 284.853,64.407 C284.698999,64.2343325 284.512334,64.0943339 284.293,63.987 C284.073666,63.8796661 283.828668,63.826 283.558,63.826 C283.277999,63.826 283.023668,63.8749995 282.795,63.973 C282.566332,64.0710005 282.370334,64.2063325 282.207,64.379 C282.043666,64.5516675 281.913,64.7546655 281.815,64.988 C281.717,65.2213345 281.663333,65.473332 281.654,65.744 L285.378,65.744 Z M289.396,67.676 C289.442667,68.142669 289.619998,68.4693324 289.928,68.656 C290.236002,68.8426676 290.604665,68.936 291.034,68.936 C291.183334,68.936 291.353666,68.9243335 291.545,68.901 C291.736334,68.8776666 291.915999,68.8333337 292.084,68.768 C292.252001,68.7026663 292.389666,68.6070006 292.497,68.481 C292.604334,68.3549994 292.653333,68.1893344 292.644,67.984 C292.634667,67.7786656 292.560001,67.6106673 292.42,67.48 C292.279999,67.3493327 292.100334,67.2443337 291.881,67.165 C291.661666,67.0856663 291.412001,67.0180003 291.132,66.962 C290.851999,66.9059997 290.567335,66.8453337 290.278,66.78 C289.979332,66.7146663 289.692335,66.6353338 289.417,66.542 C289.141665,66.4486662 288.894334,66.3226675 288.675,66.164 C288.455666,66.0053325 288.280667,65.8023346 288.15,65.555 C288.019333,65.3076654 287.954,65.0020018 287.954,64.638 C287.954,64.245998 288.049666,63.9170013 288.241,63.651 C288.432334,63.3849987 288.674999,63.1703342 288.969,63.007 C289.263001,62.8436659 289.589665,62.7293337 289.949,62.664 C290.308335,62.5986663 290.651332,62.566 290.978,62.566 C291.351335,62.566 291.708332,62.6056663 292.049,62.685 C292.389668,62.7643337 292.697665,62.8926658 292.973,63.07 C293.248335,63.2473342 293.476999,63.4783319 293.659,63.763 C293.841001,64.0476681 293.955333,64.3906647 294.002,64.792 L292.336,64.792 C292.261333,64.4093314 292.086335,64.1526673 291.811,64.022 C291.535665,63.8913327 291.220668,63.826 290.866,63.826 C290.753999,63.826 290.621001,63.8353332 290.467,63.854 C290.312999,63.8726668 290.168334,63.9076664 290.033,63.959 C289.897666,64.0103336 289.783334,64.0849995 289.69,64.183 C289.596666,64.2810005 289.55,64.4093325 289.55,64.568 C289.55,64.764001 289.617666,64.9226661 289.753,65.044 C289.888334,65.1653339 290.065666,65.2656663 290.285,65.345 C290.504334,65.4243337 290.753999,65.4919997 291.034,65.548 C291.314001,65.6040003 291.603332,65.6646663 291.902,65.73 C292.191335,65.7953337 292.475999,65.8746662 292.756,65.968 C293.036001,66.0613338 293.285666,66.1873325 293.505,66.346 C293.724334,66.5046675 293.901666,66.7053321 294.037,66.948 C294.172334,67.1906679 294.24,67.4893316 294.24,67.844 C294.24,68.2733355 294.142001,68.6373318 293.946,68.936 C293.749999,69.2346682 293.495668,69.4773324 293.183,69.664 C292.870332,69.8506676 292.522669,69.9859996 292.14,70.07 C291.757331,70.1540004 291.379335,70.196 291.006,70.196 C290.548664,70.196 290.126335,70.1446672 289.739,70.042 C289.351665,69.9393328 289.015668,69.783001 288.731,69.573 C288.446332,69.3629989 288.222334,69.1016682 288.059,68.789 C287.895666,68.4763318 287.809333,68.1053355 287.8,67.676 L289.396,67.676 Z M301.52,68.39 C301.52,68.586001 301.545666,68.7259996 301.597,68.81 C301.648334,68.8940004 301.748666,68.936 301.898,68.936 L302.066,68.936 C302.131334,68.936 302.206,68.9266668 302.29,68.908 L302.29,70.014 C302.234,70.0326668 302.161667,70.0536666 302.073,70.077 C301.984333,70.1003334 301.893334,70.1213332 301.8,70.14 C301.706666,70.1586668 301.613334,70.1726666 301.52,70.182 C301.426666,70.1913334 301.347334,70.196 301.282,70.196 C300.955332,70.196 300.684668,70.1306673 300.47,70 C300.255332,69.8693327 300.115334,69.6406683 300.05,69.314 C299.732665,69.6220015 299.343002,69.8459993 298.881,69.986 C298.418998,70.1260007 297.973335,70.196 297.544,70.196 C297.217332,70.196 296.904668,70.1516671 296.606,70.063 C296.307332,69.9743329 296.043668,69.8436675 295.815,69.671 C295.586332,69.4983325 295.404334,69.2790013 295.269,69.013 C295.133666,68.7469987 295.066,68.4366684 295.066,68.082 C295.066,67.6339978 295.147666,67.2700014 295.311,66.99 C295.474334,66.7099986 295.688999,66.4906675 295.955,66.332 C296.221001,66.1733325 296.519665,66.0590004 296.851,65.989 C297.182335,65.9189997 297.515998,65.8653335 297.852,65.828 C298.141335,65.7719997 298.416665,65.7323334 298.678,65.709 C298.939335,65.6856666 299.170332,65.6460003 299.371,65.59 C299.571668,65.5339997 299.730333,65.4476672 299.847,65.331 C299.963667,65.2143327 300.022,65.0393345 300.022,64.806 C300.022,64.6006656 299.973,64.4326673 299.875,64.302 C299.777,64.1713327 299.655667,64.0710004 299.511,64.001 C299.366333,63.9309997 299.205334,63.8843334 299.028,63.861 C298.850666,63.8376666 298.682667,63.826 298.524,63.826 C298.075998,63.826 297.707335,63.9193324 297.418,64.106 C297.128665,64.2926676 296.965334,64.581998 296.928,64.974 L295.332,64.974 C295.36,64.507331 295.471999,64.1200015 295.668,63.812 C295.864001,63.5039985 296.113665,63.2566676 296.417,63.07 C296.720335,62.8833324 297.063331,62.752667 297.446,62.678 C297.828669,62.603333 298.220665,62.566 298.622,62.566 C298.976668,62.566 299.326665,62.603333 299.672,62.678 C300.017335,62.752667 300.327665,62.8739992 300.603,63.042 C300.878335,63.2100008 301.099999,63.4269987 301.268,63.693 C301.436001,63.9590013 301.52,64.2833314 301.52,64.666 L301.52,68.39 Z M299.924,66.374 C299.681332,66.5326675 299.382668,66.6283332 299.028,66.661 C298.673332,66.6936668 298.318668,66.7426663 297.964,66.808 C297.795999,66.8360001 297.632667,66.8756664 297.474,66.927 C297.315333,66.9783336 297.175334,67.0483329 297.054,67.137 C296.932666,67.2256671 296.837,67.3423326 296.767,67.487 C296.697,67.6316674 296.662,67.8066656 296.662,68.012 C296.662,68.1893342 296.713333,68.3386661 296.816,68.46 C296.918667,68.5813339 297.042333,68.6769996 297.187,68.747 C297.331667,68.8170004 297.490332,68.8659999 297.663,68.894 C297.835668,68.9220001 297.991999,68.936 298.132,68.936 C298.309334,68.936 298.500666,68.9126669 298.706,68.866 C298.911334,68.8193331 299.104999,68.7400006 299.287,68.628 C299.469001,68.5159994 299.620666,68.3736675 299.742,68.201 C299.863334,68.0283325 299.924,67.8160013 299.924,67.564 L299.924,66.374 Z M302.528,62.762 L303.718,62.762 L303.718,62.16 C303.718,61.7026644 303.773999,61.3316681 303.886,61.047 C303.998001,60.7623319 304.147332,60.5430008 304.334,60.389 C304.520668,60.2349992 304.732999,60.1323336 304.971,60.081 C305.209001,60.0296664 305.458665,60.004 305.72,60.004 C306.233336,60.004 306.606666,60.0366663 306.84,60.102 L306.84,61.348 C306.737333,61.3199999 306.627667,61.2990001 306.511,61.285 C306.394333,61.2709999 306.256667,61.264 306.098,61.264 C305.883332,61.264 305.699001,61.3153328 305.545,61.418 C305.390999,61.5206672 305.314,61.7213318 305.314,62.02 L305.314,62.762 L306.672,62.762 L306.672,63.952 L305.314,63.952 L305.314,70 L303.718,70 L303.718,63.952 L302.528,63.952 L302.528,62.762 Z M308.898,66.794 C308.898,67.0740014 308.937666,67.3446654 309.017,67.606 C309.096334,67.8673346 309.215333,68.095999 309.374,68.292 C309.532667,68.488001 309.733332,68.6443328 309.976,68.761 C310.218668,68.8776673 310.507998,68.936 310.844,68.936 C311.310669,68.936 311.686332,68.8356677 311.971,68.635 C312.255668,68.4343323 312.467999,68.1333353 312.608,67.732 L314.12,67.732 C314.036,68.124002 313.891334,68.4739985 313.686,68.782 C313.480666,69.0900015 313.233335,69.3489989 312.944,69.559 C312.654665,69.769001 312.330335,69.9276661 311.971,70.035 C311.611665,70.1423339 311.236002,70.196 310.844,70.196 C310.274664,70.196 309.770669,70.1026676 309.332,69.916 C308.893331,69.7293324 308.522335,69.4680017 308.219,69.132 C307.915665,68.7959983 307.687001,68.394669 307.533,67.928 C307.378999,67.461331 307.302,66.9480028 307.302,66.388 C307.302,65.8746641 307.383666,65.3870023 307.547,64.925 C307.710334,64.4629977 307.943665,64.0570017 308.247,63.707 C308.550335,63.3569983 308.916665,63.0793344 309.346,62.874 C309.775335,62.6686656 310.260664,62.566 310.802,62.566 C311.371336,62.566 311.882331,62.6849988 312.335,62.923 C312.787669,63.1610012 313.163332,63.475998 313.462,63.868 C313.760668,64.260002 313.977666,64.7103308 314.113,65.219 C314.248334,65.7276692 314.283334,66.252664 314.218,66.794 L308.898,66.794 Z M312.622,65.744 C312.603333,65.4919987 312.549667,65.2493345 312.461,65.016 C312.372333,64.7826655 312.251001,64.5796675 312.097,64.407 C311.942999,64.2343325 311.756334,64.0943339 311.537,63.987 C311.317666,63.8796661 311.072668,63.826 310.802,63.826 C310.521999,63.826 310.267668,63.8749995 310.039,63.973 C309.810332,64.0710005 309.614334,64.2063325 309.451,64.379 C309.287666,64.5516675 309.157,64.7546655 309.059,64.988 C308.961,65.2213345 308.907333,65.473332 308.898,65.744 L312.622,65.744 Z" id="Typesafe" sketch:type="MSShapeGroup"></path>
        </g>
    </g>
</svg>