<?xml version="1.0" encoding="UTF-8" standalone="no"?>
<svg width="18px" height="18px" viewBox="0 0 18 18" version="1.1" xmlns="http://www.w3.org/2000/svg" xmlns:xlink="http://www.w3.org/1999/xlink" xmlns:sketch="http://www.bohemiancoding.com/sketch/ns">
    <title>Artboard 1</title>
    <description>Created with Sketch (http://www.bohemiancoding.com/sketch)</description>
    <defs></defs>
    <g id="Page-1" stroke="none" stroke-width="1" fill="none" fill-rule="evenodd" sketch:type="MSPage">
        <g id="Artboard-1" sketch:type="MSArtboardGroup" fill="#627886">
            <path d="M14.134849,15.134849 C15.8862895,13.6673409 17,11.4637311 17,9.00000003 C17,4.58172182 13.4182782,1.00000003 9,1.00000003 C4.58172178,1.00000003 1,4.58172182 1,9.00000003 C1,12.3573778 3.06816958,15.2317084 6,16.4184831 L6,13.0003663 C4.78555328,12.08816 4,10.635818 4,9.00000003 C4,6.23857615 6.23857611,4.00000003 9,4.00000003 C11.7614239,4.00000003 14,6.23857615 14,9.00000003 C14,10.6357241 13.2145369,12.0879932 12.0002092,13.0002092 L9.99999999,11 L9.99999999,17 L16,17 L14.134849,15.134849 Z" id="Oval-3-copy" sketch:type="MSShapeGroup"></path>
        </g>
    </g>
</svg>